<svg width="307" height="132" viewBox="0 0 307 132" fill="none" xmlns="http://www.w3.org/2000/svg">
<path d="M112.224 20.68C112.8 21.448 112.8 22.024 112.8 24.52C112.8 27.112 112.608 27.976 111.648 30.952C108.96 39.016 106.272 45.544 93.984 72.808L88.704 84.616L89.472 85.384C90.912 87.016 90.048 88.936 88.032 88.648L86.976 88.456L82.464 98.824C70.752 125.416 68.736 129.544 66.912 130.504C65.664 131.08 64.992 130.984 64.032 130.216L63.168 129.448L63.264 124.84C63.36 119.368 62.976 116.776 61.824 114.28C58.944 108.328 50.496 105.352 39.168 106.312C36.768 106.504 34.56 106.792 34.368 107.08C34.176 107.272 32.16 110.248 30.048 113.704C24.672 122.44 23.808 123.688 22.848 124.072C21.504 124.648 19.968 123.304 20.352 121.864C20.448 121.48 22.368 118.216 24.48 114.664C26.688 111.112 28.32 108.136 28.224 108.04C28.128 107.944 25.248 108.52 21.696 109.384C4.608 113.416 4.416 113.416 2.688 112.36C1.44 111.688 1.056 110.92 0.96 109.384C0.96 107.272 2.4 105.64 6.336 103.24C11.52 100.168 23.232 95.272 32.832 92.2C35.616 91.24 38.208 90.376 38.496 90.28C38.688 90.088 39.84 88.456 40.992 86.44C42.144 84.52 50.496 70.504 59.616 55.336C68.64 40.168 77.088 26.056 78.336 23.752C82.752 15.976 84.384 12.04 84.768 9.15999C84.96 7.23999 84.48 6.856 81.792 6.95199C76.32 7.048 66.432 11.56 55.392 18.856C33.024 33.64 16.032 53.992 13.92 68.488C13.632 70.408 13.44 70.888 12.768 71.368C11.328 72.616 9.312 71.56 8.352 69.064C7.68 67.24 7.968 63.112 9.024 59.56C12.672 46.984 26.784 31.72 47.136 18.28C64.032 7.048 79.488 0.903996 85.728 2.92C89.76 4.36 90.816 8.87199 88.32 15.112C86.016 20.968 82.464 26.92 68.064 49.672C59.616 63.112 49.248 79.624 48.48 80.968C48.096 81.736 48.768 80.872 53.568 74.824C74.976 47.752 96.768 25.288 106.272 20.392C108.768 19.144 111.168 19.24 112.224 20.68ZM32.736 100.552C33.312 99.688 33.696 98.824 33.696 98.728C33.504 98.632 25.344 101.992 22.56 103.24C21.312 103.816 21.504 103.816 27.072 102.952L31.776 102.28L32.736 100.552ZM74.784 104.68C79.008 95.272 82.464 87.496 82.464 87.4C82.464 87.016 73.056 88.072 67.008 89.224C60.288 90.376 50.976 92.776 44.256 94.984L41.568 95.944L39.552 98.92L37.536 101.896H41.568C48.48 101.896 53.952 103.048 57.888 105.448C60.288 106.888 63.264 109.864 64.32 112.072C65.376 114.088 66.24 117.352 66.528 120.328C66.624 121.672 66.816 122.44 66.912 122.248C67.008 121.96 70.56 114.088 74.784 104.68ZM109.44 24.904C109.92 22.696 109.728 22.216 108.576 22.6C101.28 24.616 81.12 44.488 61.728 68.872C56.736 75.016 47.424 87.304 47.424 87.688C47.424 87.784 47.808 87.784 48.288 87.688C48.672 87.592 51.072 87.112 53.472 86.632C61.632 84.904 74.4 83.56 80.736 83.656C82.56 83.656 84.096 83.56 84.288 83.464C84.384 83.272 85.344 81.352 86.304 79.144C87.264 76.936 91.2 68.392 94.944 60.136C105.408 36.904 108.288 29.992 109.44 24.904ZM102.95 76.36C101.605 78.664 95.9415 100.648 94.0215 110.92C93.2535 115.144 92.4855 121.096 92.6775 121.288C92.7735 121.384 94.5975 118.888 96.7095 115.816C110.438 95.752 122.918 79.528 124.646 79.528C125.702 79.528 125.414 80.2 123.59 82.504C119.174 87.976 108.998 102.568 101.894 114.472C97.5735 121.576 95.4615 124.648 94.1175 125.608C93.0615 126.376 91.4295 126.376 90.7575 125.608C89.5095 124.36 89.5095 122.44 90.3735 116.008C91.3335 109.768 94.2135 96.808 96.9015 86.824C97.6695 83.752 98.3415 81.256 98.3415 81.256C98.3415 81.16 97.6695 81.16 96.9015 81.256C95.8455 81.352 95.4615 81.256 95.1735 80.872C94.4055 79.816 94.6935 78.76 96.2295 76.84C97.0935 75.784 98.7255 73.48 99.8775 71.752C101.894 68.872 102.086 68.296 104.486 61.288C111.878 39.016 120.134 21.352 126.854 13.288C131.462 7.816 135.878 8.96799 134.822 15.4C133.958 21.064 128.198 33.832 120.038 48.52C115.43 56.776 107.846 69.448 105.542 72.616C104.582 74.056 103.43 75.688 102.95 76.36ZM108.902 57.832C108.614 58.888 111.878 53.8 115.622 47.656C123.878 33.832 128.966 23.56 130.598 17.032C130.982 15.688 131.27 14.536 131.27 14.344C131.27 13.672 128.774 16.744 126.47 20.104C122.246 26.536 118.502 33.928 113.798 45.16C112.166 49.288 109.958 55.048 108.902 57.832ZM103.277 119.08C103.085 118.792 103.181 118.216 103.469 117.832C105.101 115.144 123.629 91.912 129.197 85.384L130.829 83.56L131.021 77.416C131.213 71.752 131.213 71.176 130.733 70.6C129.773 69.544 130.157 65.512 131.885 59.944C133.037 56.008 134.285 54.952 136.205 56.392C137.069 57.16 137.165 58.504 136.493 61.768C135.629 65.992 134.285 76.264 134.285 78.856C134.285 79.528 134.861 79.048 139.661 74.152C149.357 64.36 154.349 61 155.885 63.304C156.557 64.264 156.269 64.648 153.869 65.8C152.717 66.472 150.989 67.528 149.933 68.296C147.533 70.12 142.157 75.4 137.645 80.296L133.997 84.328V86.728C133.997 90.088 134.477 95.656 134.957 97.864C135.533 100.264 136.589 102.376 137.453 102.952C138.413 103.624 139.949 103.144 142.253 101.416C145.709 98.824 154.061 88.552 158.189 82.312C161.549 77.224 162.029 76.84 160.589 80.584C159.053 84.712 149.261 98.248 145.613 101.896C139.277 108.136 135.149 107.752 132.941 100.648C132.173 98.44 131.501 94.216 131.117 89.8L130.925 87.784L125.165 94.312C119.117 101.128 105.581 116.872 104.237 118.6C103.565 119.56 103.469 119.56 103.277 119.08ZM157.917 102.28C156.861 101.512 156.573 99.976 156.765 96.616C157.149 91.528 158.877 81.544 160.701 74.824C162.141 69.64 164.733 61.864 165.213 61.48C166.077 60.808 167.613 61 168.285 61.864C169.149 62.92 169.053 63.4 167.709 68.008C167.133 70.216 165.885 74.536 164.925 77.704C163.389 82.888 161.085 92.392 161.085 93.448C161.085 93.64 162.429 91.528 163.965 88.552C165.501 85.672 167.997 81.256 169.437 78.664C170.973 76.168 172.509 73 172.989 71.848C174.141 68.584 176.157 64.744 176.925 64.072C177.981 63.304 178.749 63.4 179.133 64.264C179.421 64.84 179.421 65.224 178.845 66.568C176.349 72.136 173.661 81.256 173.661 83.944V85.384L174.621 85.192C175.965 84.904 177.789 83.848 180.573 81.448C184.221 78.28 184.797 78.184 184.125 80.392C183.741 81.928 179.421 86.344 176.925 87.784C175.389 88.744 174.717 88.936 173.469 88.936C171.549 88.936 170.685 88.168 170.109 86.152L169.725 84.904L168.669 87.112C163.197 98.536 162.045 100.84 160.989 101.704C159.837 102.76 158.877 102.952 157.917 102.28ZM181.165 96.424C180.205 95.752 179.821 94.12 180.013 92.296C181.357 81.832 187.213 61 189.517 58.6C190.765 57.256 193.357 58.12 193.357 59.848C193.357 60.328 192.685 62.824 191.821 65.512C190.093 71.368 187.309 80.968 187.309 81.352C187.309 81.544 188.077 80.584 189.037 79.144C196.813 67.912 201.037 64.552 204.205 67.432C205.645 68.872 206.029 70.696 206.509 78.856C206.893 85.384 207.181 87.976 207.853 89.704C208.333 90.76 208.429 90.856 209.293 90.664C211.981 90.088 215.917 87.208 219.373 83.272C221.197 81.064 223.693 78.568 224.365 78.568C224.845 78.568 223.789 81.352 223.021 82.984C221.197 86.536 216.877 91.24 213.229 93.544C211.117 94.984 209.581 95.464 207.565 95.272C206.029 95.08 204.877 94.408 203.917 92.968C202.477 90.952 202.093 88.456 201.709 78.76C201.517 74.44 201.325 70.888 201.229 70.792C200.941 70.504 197.101 74.92 195.181 77.704C192.397 81.928 191.437 83.56 188.077 89.992C186.541 92.968 184.909 95.848 184.525 96.136C183.565 97 182.125 97.096 181.165 96.424ZM271.397 26.92C272.453 30.28 267.941 38.632 249.701 66.952C246.437 71.944 246.245 72.328 244.805 76.936C242.693 83.368 239.621 93.928 237.893 100.84C234.725 113.032 232.709 124.744 233.573 124.648C233.765 124.648 234.341 123.976 235.013 123.208C235.589 122.344 236.261 121.672 236.357 121.672C236.741 121.672 236.165 123.784 235.301 125.224C234.149 127.144 233.189 127.528 232.229 126.472C231.653 125.992 231.557 125.512 231.557 123.592C231.557 117.544 235.301 99.496 239.429 84.904C240.197 82.408 240.677 80.488 240.581 80.584C240.485 80.68 239.429 82.12 238.277 83.656C230.405 94.792 225.701 98.44 222.053 96.232C218.597 94.12 219.365 86.056 224.165 75.976C227.525 68.68 231.941 64.264 235.685 64.264C237.509 64.264 239.045 65.128 240.005 66.664C240.581 67.816 240.677 68.296 240.677 70.504C240.677 71.944 240.485 73.576 240.293 74.248C239.909 75.688 240.005 75.592 242.405 72.136C243.845 70.024 244.613 68.584 245.477 66.088C251.525 48.712 259.205 34.12 265.637 27.784C268.421 25 270.629 24.712 271.397 26.92ZM234.245 83.08L237.221 79.336L236.453 78.664C235.685 77.992 235.685 77.992 235.973 74.248C236.069 72.232 236.069 70.216 235.973 69.832C235.781 69.064 235.685 69.064 234.917 69.448C233.861 70.024 231.365 72.616 229.829 75.016C226.277 80.104 223.205 89.32 223.877 92.2L224.165 92.968L225.221 92.392C225.893 92.104 227.429 90.664 228.773 89.32C230.117 87.976 232.613 85.096 234.245 83.08ZM268.901 29.32C269.093 28.552 269.093 28.456 268.517 28.936C266.693 30.376 261.605 37.864 258.629 43.432C255.749 48.712 250.565 60.04 251.333 59.272C251.429 59.08 253.157 56.68 254.981 53.704C263.717 40.456 268.037 32.872 268.901 29.32ZM285.074 79.624C285.266 80.488 282.482 83.56 279.89 85.672C272.498 91.912 265.586 95.176 260.882 94.6C260.21 94.504 259.442 94.024 258.578 93.256C256.85 91.624 256.37 89.704 256.37 85.672C256.37 83.368 256.178 82.216 255.698 80.872C254.45 77.032 255.122 74.344 257.426 74.344C258.578 74.344 258.578 74.248 259.442 72.616C260.306 70.696 262.61 68.104 263.954 67.336C265.202 66.664 267.218 66.952 268.274 68.008C270.578 70.216 270.482 74.824 267.986 79.72C266.162 83.464 263.57 85.864 261.266 85.864C260.498 85.864 260.498 85.864 260.594 87.688C260.786 90.088 261.65 90.952 263.762 90.952C266.642 90.952 272.594 88.264 277.394 84.712C282.386 81.16 284.978 79.144 285.074 79.624ZM261.65 78.664L261.17 80.2L261.746 79.624C262.13 79.336 262.706 78.568 263.09 77.896C263.954 76.456 264.53 74.728 264.818 73.096C265.01 71.944 265.01 71.944 264.53 72.52C263.762 73.48 262.13 76.936 261.65 78.664ZM281.075 95.272C280.499 94.696 280.307 94.216 280.307 93.256C280.307 89.896 288.563 61.864 291.059 56.776C292.019 54.76 293.075 54.088 294.323 54.664C295.283 55.048 295.859 56.008 295.859 57.256C295.859 58.696 293.747 67.72 293.267 68.392C292.883 68.872 292.307 69.256 291.827 69.352C291.059 69.448 290.963 69.736 290.195 72.136C289.715 73.672 289.331 74.92 289.331 75.016C289.331 75.016 290.195 73.672 291.347 72.04C292.499 70.216 293.747 68.584 294.035 68.296C295.571 66.952 297.971 67.24 299.027 68.968C299.315 69.544 299.891 71.368 300.275 73.096C300.659 74.728 301.235 77.704 301.523 78.28C301.907 79.336 302.003 79.336 302.867 79.24C304.115 78.952 306.803 77.512 306.803 78.76C306.803 79.912 304.019 81.736 302.867 82.024C301.619 82.312 299.315 81.928 298.259 80.776C297.203 79.624 295.859 76.744 295.475 75.112C295.379 74.536 295.091 74.056 294.995 73.96C294.515 73.672 289.043 84.136 286.163 91.144C284.915 94.12 283.475 95.944 282.419 95.944C282.131 95.944 281.459 95.656 281.075 95.272Z" fill="white"/>
</svg>
