<svg width="1260" height="21" viewBox="0 0 1260 21" fill="none" xmlns="http://www.w3.org/2000/svg">
<path d="M1.32182 20.6957H0V0.304348H8.63586C12.8069 0.304348 15.803 2.76956 15.803 7.03043C15.803 11.2913 12.8069 13.7565 8.63586 13.7565H1.32182V20.6957ZM8.57712 1.55217H1.32182V12.5087H8.57712C12.3957 12.5087 14.4812 10.7739 14.4812 7.03043C14.4812 3.28696 12.3957 1.55217 8.57712 1.55217Z" fill="white"/>
<path d="M27.2301 21C21.6197 21 17.5074 16.8609 17.5074 10.5C17.5074 4.13913 21.6197 0 27.2301 0C32.8698 0 36.9528 4.13913 36.9528 10.5C36.9528 16.8609 32.8698 21 27.2301 21ZM27.2301 19.6609C32.4292 19.6609 35.6016 16.3739 35.6016 10.5C35.6016 4.62609 32.4292 1.3087 27.2301 1.3087C22.031 1.3087 18.8586 4.62609 18.8586 10.5C18.8586 16.3739 22.031 19.6609 27.2301 19.6609Z" fill="white"/>
<path d="M47.2705 21C41.5133 21 39.0459 17.987 39.0459 14.3652V14.1826H40.3677V14.5478C40.3677 17.8348 42.4532 19.6913 47.2705 19.6913C51.3535 19.6913 53.4684 18.3826 53.4684 15.7043C53.4684 13.1174 51.9409 12.1739 48.7686 11.4435L45.0381 10.6522C41.9539 9.98261 39.2515 8.73478 39.2515 5.32609C39.2515 2.64782 41.4839 0 46.8005 0C52.1759 0 54.5258 3.07391 54.5258 6.63478V6.81739H53.204V6.45217C53.204 3.16522 51.1772 1.33913 46.7712 1.33913C42.6001 1.33913 40.5733 2.64783 40.5733 5.17391C40.5733 7.85217 42.0714 8.67391 45.3906 9.43478L49.0917 10.2261C52.3228 10.9261 54.7902 12.2652 54.7902 15.5522C54.7902 18.3522 52.4403 21 47.2705 21Z" fill="white"/>
<path d="M65.7911 20.6957H64.4986V1.55217H56.1271V0.304348H74.1332V1.55217H65.7911V20.6957Z" fill="white"/>
<path d="M90.7819 20.6957H76.3888V0.304348H90.7819V1.55217H77.7106V9.83043H90.3413V11.0478H77.7106V19.4478H90.7819V20.6957Z" fill="white"/>
<path d="M95.2947 20.6957H93.9728V0.304348H103.196C107.074 0.304348 109.864 2.43478 109.864 6.11739C109.864 9.61739 107.25 11.8087 103.607 11.8087V11.9304C104.724 12.2652 105.487 13.087 106.163 14.1826L110.128 20.6957H108.66L104.87 14.5783C103.842 12.8435 102.697 12.0522 99.9651 12.0522H95.2947V20.6957ZM95.2947 1.55217V10.8652H103.196C106.633 10.8652 108.513 9.37391 108.513 6.2087C108.513 3.04348 106.633 1.55217 103.196 1.55217H95.2947Z" fill="white"/>
<path d="M171.35 20.6957H170.028V0.304348H184.157V1.55217H171.35V10.4391H183.717V11.6565H171.35V20.6957Z" fill="white"/>
<path d="M201.281 20.6957H187.211V0.304348H188.533V19.4478H201.281V20.6957Z" fill="white"/>
<path d="M211.633 20.6957H210.341V13.3L201.852 0.304348H203.379L209.371 9.40435L210.987 11.8391H211.075L218.595 0.304348H220.151L211.633 13.2391V20.6957Z" fill="white"/>
<path d="M236.428 20.6957H222.035V0.304348H236.428V1.55217H223.357V9.83043H235.987V11.0478H223.357V19.4478H236.428V20.6957Z" fill="white"/>
<path d="M240.941 20.6957H239.619V0.304348H248.842C252.719 0.304348 255.51 2.43478 255.51 6.11739C255.51 9.61739 252.896 11.8087 249.253 11.8087V11.9304C250.37 12.2652 251.133 13.087 251.809 14.1826L255.774 20.6957H254.306L250.516 14.5783C249.488 12.8435 248.343 12.0522 245.611 12.0522H240.941V20.6957ZM240.941 1.55217V10.8652H248.842C252.279 10.8652 254.159 9.37391 254.159 6.2087C254.159 3.04348 252.279 1.55217 248.842 1.55217H240.941Z" fill="white"/>
<path d="M323.786 20.6957H322.494V1.55217H314.122V0.304348H332.128V1.55217H323.786V20.6957Z" fill="white"/>
<path d="M342.197 20.6957H340.905V13.3L332.416 0.304348H333.943L339.935 9.40435L341.551 11.8391H341.639L349.159 0.304348H350.716L342.197 13.2391V20.6957Z" fill="white"/>
<path d="M353.921 20.6957H352.599V0.304348H361.235C365.406 0.304348 368.402 2.76956 368.402 7.03043C368.402 11.2913 365.406 13.7565 361.235 13.7565H353.921V20.6957ZM361.176 1.55217H353.921V12.5087H361.176C364.995 12.5087 367.08 10.7739 367.08 7.03043C367.08 3.28696 364.995 1.55217 361.176 1.55217Z" fill="white"/>
<path d="M379.829 21C374.219 21 370.106 16.8609 370.106 10.5C370.106 4.13913 374.219 0 379.829 0C385.469 0 389.552 4.13913 389.552 10.5C389.552 16.8609 385.469 21 379.829 21ZM379.829 19.6609C385.028 19.6609 388.201 16.3739 388.201 10.5C388.201 4.62609 385.028 1.3087 379.829 1.3087C374.63 1.3087 371.458 4.62609 371.458 10.5C371.458 16.3739 374.63 19.6609 379.829 19.6609Z" fill="white"/>
<path d="M401.309 21C395.845 21 391.821 16.8609 391.821 10.5C391.821 4.13913 395.904 0 401.456 0C406.214 0 410.003 2.86087 410.003 7.27391V7.54783H408.623V7.27391C408.623 3.56087 406.009 1.3087 401.456 1.3087C396.315 1.3087 393.172 4.62609 393.172 10.5C393.172 16.3739 396.315 19.6609 401.426 19.6609C406.067 19.6609 408.711 17.5 408.711 13.1783V12.0522H400.486V10.8957H410.003V20.6957H408.887V16.2217H408.77C407.683 19.7217 404.569 21 401.309 21Z" fill="white"/>
<path d="M414.82 20.6957H413.498V0.304348H422.721C426.598 0.304348 429.389 2.43478 429.389 6.11739C429.389 9.61739 426.775 11.8087 423.132 11.8087V11.9304C424.248 12.2652 425.012 13.087 425.688 14.1826L429.653 20.6957H428.185L424.395 14.5783C423.367 12.8435 422.222 12.0522 419.49 12.0522H414.82V20.6957ZM414.82 1.55217V10.8652H422.721C426.158 10.8652 428.038 9.37391 428.038 6.2087C428.038 3.04348 426.158 1.55217 422.721 1.55217H414.82Z" fill="white"/>
<path d="M432.079 20.6957H430.669L439.657 0.304348H441.449L450.437 20.6957H449.027L446.119 14.213H434.957L432.079 20.6957ZM439.452 4.13913L435.516 12.9652H445.561L441.625 4.13913L440.568 1.64348H440.45L439.452 4.13913Z" fill="white"/>
<path d="M453.975 20.6957H452.653V0.304348H461.289C465.46 0.304348 468.456 2.76956 468.456 7.03043C468.456 11.2913 465.46 13.7565 461.289 13.7565H453.975V20.6957ZM461.23 1.55217H453.975V12.5087H461.23C465.049 12.5087 467.134 10.7739 467.134 7.03043C467.134 3.28696 465.049 1.55217 461.23 1.55217Z" fill="white"/>
<path d="M472.305 20.6957H470.983V0.304348H472.305V9.8H485.758V0.304348H487.05V20.6957H485.758V11.0174H472.305V20.6957Z" fill="white"/>
<path d="M498.761 20.6957H497.469V13.3L488.98 0.304348H490.507L496.499 9.40435L498.115 11.8391H498.203L505.723 0.304348H507.28L498.761 13.2391V20.6957Z" fill="white"/>
<path d="M575.356 21C569.804 21 565.751 16.8609 565.751 10.5C565.751 4.13913 569.804 0 575.356 0C580.085 0 583.874 2.86087 583.874 7.30435V7.63913H582.494V7.30435C582.494 3.56087 579.879 1.3087 575.356 1.3087C570.245 1.3087 567.102 4.62609 567.102 10.5C567.102 16.3739 570.245 19.6609 575.356 19.6609C579.879 19.6609 582.494 17.4391 582.494 13.6652V13.3609H583.874V13.6652C583.874 18.1391 580.114 21 575.356 21Z" fill="white"/>
<path d="M601.038 20.6957H586.968V0.304348H588.29V19.4478H601.038V20.6957Z" fill="white"/>
<path d="M612.477 21C606.867 21 602.755 16.8609 602.755 10.5C602.755 4.13913 606.867 0 612.477 0C618.117 0 622.2 4.13913 622.2 10.5C622.2 16.8609 618.117 21 612.477 21ZM612.477 19.6609C617.676 19.6609 620.849 16.3739 620.849 10.5C620.849 4.62609 617.676 1.3087 612.477 1.3087C607.278 1.3087 604.106 4.62609 604.106 10.5C604.106 16.3739 607.278 19.6609 612.477 19.6609Z" fill="white"/>
<path d="M633.311 20.6957H632.018V1.55217H623.647V0.304348H641.653V1.55217H633.311V20.6957Z" fill="white"/>
<path d="M645.23 20.6957H643.909V0.304348H645.23V9.8H658.684V0.304348H659.976V20.6957H658.684V11.0174H645.23V20.6957Z" fill="white"/>
<path d="M665.195 20.6957H663.873V0.304348H665.195V20.6957Z" fill="white"/>
<path d="M670.387 20.6957H669.066V0.304348H670.534L681.961 15.5826L684.252 18.687H684.369L684.34 15.613V0.304348H685.632V20.6957H684.193L672.913 5.63043L670.475 2.34348H670.358L670.387 5.63043V20.6957Z" fill="white"/>
<path d="M698.212 21C692.748 21 688.724 16.8609 688.724 10.5C688.724 4.13913 692.807 0 698.359 0C703.117 0 706.907 2.86087 706.907 7.27391V7.54783H705.526V7.27391C705.526 3.56087 702.912 1.3087 698.359 1.3087C693.218 1.3087 690.076 4.62609 690.076 10.5C690.076 16.3739 693.218 19.6609 698.329 19.6609C702.971 19.6609 705.614 17.5 705.614 13.1783V12.0522H697.39V10.8957H706.907V20.6957H705.79V16.2217H705.673C704.586 19.7217 701.472 21 698.212 21Z" fill="white"/>
<path d="M775.895 20.6957H767.699V0.304348H775.895C781.711 0.304348 785.353 4.2913 785.353 10.5C785.353 16.7087 781.711 20.6957 775.895 20.6957ZM775.895 1.55217H769.021V19.4478H775.895C781.27 19.4478 784.002 16.2522 784.002 10.5C784.002 4.74783 781.27 1.55217 775.895 1.55217Z" fill="white"/>
<path d="M789.731 20.6957H788.409V0.304348H789.731V20.6957Z" fill="white"/>
<path d="M802.267 21C796.803 21 792.779 16.8609 792.779 10.5C792.779 4.13913 796.862 0 802.413 0C807.172 0 810.961 2.86087 810.961 7.27391V7.54783H809.581V7.27391C809.581 3.56087 806.966 1.3087 802.413 1.3087C797.273 1.3087 794.13 4.62609 794.13 10.5C794.13 16.3739 797.273 19.6609 802.384 19.6609C807.025 19.6609 809.669 17.5 809.669 13.1783V12.0522H801.444V10.8957H810.961V20.6957H809.845V16.2217H809.728C808.641 19.7217 805.527 21 802.267 21Z" fill="white"/>
<path d="M815.777 20.6957H814.456V0.304348H815.777V20.6957Z" fill="white"/>
<path d="M827.667 20.6957H826.374V1.55217H818.003V0.304348H836.009V1.55217H827.667V20.6957Z" fill="white"/>
<path d="M837.971 20.6957H836.561L845.549 0.304348H847.341L856.329 20.6957H854.919L852.011 14.213H840.849L837.971 20.6957ZM845.343 4.13913L841.407 12.9652H851.453L847.517 4.13913L846.46 1.64348H846.342L845.343 4.13913Z" fill="white"/>
<path d="M872.615 20.6957H858.545V0.304348H859.867V19.4478H872.615V20.6957Z" fill="white"/>
<path d="M942.396 20.6957H932.35V0.304348H942.19C945.539 0.304348 947.918 2.16087 947.918 5.38696C947.918 7.66956 946.655 9.40435 944.158 9.92174V10.0435C946.978 10.6522 948.476 12.5087 948.476 15.0957C948.476 18.6261 945.95 20.6957 942.396 20.6957ZM933.642 1.55217V9.46522H941.867C944.922 9.46522 946.626 8.15652 946.626 5.5087C946.626 2.83043 945.157 1.55217 942.132 1.55217H933.642ZM933.642 10.6826V19.4478H942.337C945.48 19.4478 947.154 18.0478 947.154 15.0043C947.154 12.0522 945.392 10.6826 942.337 10.6826H933.642Z" fill="white"/>
<path d="M952.553 20.6957H951.231V0.304348H960.454C964.332 0.304348 967.122 2.43478 967.122 6.11739C967.122 9.61739 964.508 11.8087 960.866 11.8087V11.9304C961.982 12.2652 962.746 13.087 963.421 14.1826L967.387 20.6957H965.918L962.129 14.5783C961.101 12.8435 959.955 12.0522 957.223 12.0522H952.553V20.6957ZM952.553 1.55217V10.8652H960.454C963.891 10.8652 965.771 9.37391 965.771 6.2087C965.771 3.04348 963.891 1.55217 960.454 1.55217H952.553Z" fill="white"/>
<path d="M979.006 21C973.396 21 969.284 16.8609 969.284 10.5C969.284 4.13913 973.396 0 979.006 0C984.646 0 988.729 4.13913 988.729 10.5C988.729 16.8609 984.646 21 979.006 21ZM979.006 19.6609C984.205 19.6609 987.378 16.3739 987.378 10.5C987.378 4.62609 984.205 1.3087 979.006 1.3087C973.807 1.3087 970.635 4.62609 970.635 10.5C970.635 16.3739 973.807 19.6609 979.006 19.6609Z" fill="white"/>
<path d="M1000.6 21C995.052 21 990.998 16.8609 990.998 10.5C990.998 4.13913 995.052 0 1000.6 0C1005.33 0 1009.12 2.86087 1009.12 7.30435V7.63913H1007.74V7.30435C1007.74 3.56087 1005.13 1.3087 1000.6 1.3087C995.492 1.3087 992.35 4.62609 992.35 10.5C992.35 16.3739 995.492 19.6609 1000.6 19.6609C1005.13 19.6609 1007.74 17.4391 1007.74 13.6652V13.3609H1009.12V13.6652C1009.12 18.1391 1005.36 21 1000.6 21Z" fill="white"/>
<path d="M1013.54 20.6957H1012.22V0.304348H1013.54V9.8H1026.99V0.304348H1028.28V20.6957H1026.99V11.0174H1013.54V20.6957Z" fill="white"/>
<path d="M1040.64 21C1035.53 21 1032.03 17.9565 1032.03 12.2957V0.304348H1033.36V12.2652C1033.36 17.3478 1035.88 19.6609 1040.64 19.6609C1045.43 19.6609 1047.95 17.3478 1047.95 12.2652V0.304348H1049.25V12.2957C1049.25 17.9565 1045.78 21 1040.64 21Z" fill="white"/>
<path d="M1054.33 20.6957H1053.01V0.304348H1062.23C1066.11 0.304348 1068.9 2.43478 1068.9 6.11739C1068.9 9.61739 1066.28 11.8087 1062.64 11.8087V11.9304C1063.76 12.2652 1064.52 13.087 1065.2 14.1826L1069.16 20.6957H1067.69L1063.9 14.5783C1062.88 12.8435 1061.73 12.0522 1059 12.0522H1054.33V20.6957ZM1054.33 1.55217V10.8652H1062.23C1065.67 10.8652 1067.55 9.37391 1067.55 6.2087C1067.55 3.04348 1065.67 1.55217 1062.23 1.55217H1054.33Z" fill="white"/>
<path d="M1086.27 20.6957H1071.88V0.304348H1086.27V1.55217H1073.2V9.83043H1085.83V11.0478H1073.2V19.4478H1086.27V20.6957Z" fill="white"/>
<path d="M1160.77 20.6957H1146.7V0.304348H1148.03V19.4478H1160.77V20.6957Z" fill="white"/>
<path d="M1172.21 21C1166.6 21 1162.49 16.8609 1162.49 10.5C1162.49 4.13913 1166.6 0 1172.21 0C1177.85 0 1181.94 4.13913 1181.94 10.5C1181.94 16.8609 1177.85 21 1172.21 21ZM1172.21 19.6609C1177.41 19.6609 1180.58 16.3739 1180.58 10.5C1180.58 4.62609 1177.41 1.3087 1172.21 1.3087C1167.01 1.3087 1163.84 4.62609 1163.84 10.5C1163.84 16.3739 1167.01 19.6609 1172.21 19.6609Z" fill="white"/>
<path d="M1193.69 21C1188.23 21 1184.2 16.8609 1184.2 10.5C1184.2 4.13913 1188.29 0 1193.84 0C1198.6 0 1202.39 2.86087 1202.39 7.27391V7.54783H1201.01V7.27391C1201.01 3.56087 1198.39 1.3087 1193.84 1.3087C1188.7 1.3087 1185.56 4.62609 1185.56 10.5C1185.56 16.3739 1188.7 19.6609 1193.81 19.6609C1198.45 19.6609 1201.09 17.5 1201.09 13.1783V12.0522H1192.87V10.8957H1202.39V20.6957H1201.27V16.2217H1201.15C1200.07 19.7217 1196.95 21 1193.69 21Z" fill="white"/>
<path d="M1214.78 21C1209.17 21 1205.06 16.8609 1205.06 10.5C1205.06 4.13913 1209.17 0 1214.78 0C1220.42 0 1224.5 4.13913 1224.5 10.5C1224.5 16.8609 1220.42 21 1214.78 21ZM1214.78 19.6609C1219.98 19.6609 1223.15 16.3739 1223.15 10.5C1223.15 4.62609 1219.98 1.3087 1214.78 1.3087C1209.58 1.3087 1206.41 4.62609 1206.41 10.5C1206.41 16.3739 1209.58 19.6609 1214.78 19.6609Z" fill="white"/>
<path d="M139.563 5.47826L141.582 8.94682L144.93 11.0385L141.582 13.1301L139.563 16.5987L137.545 13.1301L134.197 11.0385L137.545 8.94682L139.563 5.47826Z" fill="white"/>
<path d="M285.302 5.47826L287.321 8.94682L290.668 11.0385L287.321 13.1301L285.302 16.5987L283.283 13.1301L279.936 11.0385L283.283 8.94682L285.302 5.47826Z" fill="white"/>
<path d="M536.108 5.47826L538.127 8.94682L541.474 11.0385L538.127 13.1301L536.108 16.5987L534.089 13.1301L530.742 11.0385L534.089 8.94682L536.108 5.47826Z" fill="white"/>
<path d="M737.205 5.47826L739.224 8.94682L742.571 11.0385L739.224 13.1301L737.205 16.5987L735.186 13.1301L731.839 11.0385L735.186 8.94682L737.205 5.47826Z" fill="white"/>
<path d="M902.149 5.47826L904.168 8.94682L907.516 11.0385L904.168 13.1301L902.149 16.5987L900.131 13.1301L896.783 11.0385L900.131 8.94682L902.149 5.47826Z" fill="white"/>
<path d="M1116.24 5.47826L1118.26 8.94682L1121.6 11.0385L1118.26 13.1301L1116.24 16.5987L1114.22 13.1301L1110.87 11.0385L1114.22 8.94682L1116.24 5.47826Z" fill="white"/>
<path d="M1254.63 5.47826L1256.65 8.94682L1260 11.0385L1256.65 13.1301L1254.63 16.5987L1252.61 13.1301L1249.27 11.0385L1252.61 8.94682L1254.63 5.47826Z" fill="white"/>
</svg>
