<svg width="1086" height="72" viewBox="0 0 1086 72" fill="none" xmlns="http://www.w3.org/2000/svg">
<g clip-path="url(#clip0_1266_294)">
<path d="M192.608 0H36.114C16.1688 0 0 16.1178 0 36C0 55.8823 16.1688 72 36.114 72H192.608C212.553 72 228.722 55.8823 228.722 36C228.722 16.1178 212.553 0 192.608 0Z" fill="white"/>
<path d="M35.2373 54.8572V16.5536H50.6073V23.9531H43.0532V31.418H50.3016V38.6217H43.0532V47.3923H51.1094V54.8572H35.2373ZM53.6638 54.8572V16.5536H64.2306C66.9961 16.5536 69.0773 17.3225 70.4746 18.8605C71.8719 20.3839 72.5705 22.6183 72.5705 25.5636V43.4967C72.5705 47.1239 71.9301 49.9241 70.6493 51.8974C69.383 53.8706 67.1562 54.8572 63.9686 54.8572H53.6638ZM61.3924 48.0887H62.7242C64.136 48.0887 64.8419 47.4068 64.8419 46.043V26.2818C64.8419 25.005 64.6672 24.1852 64.3179 23.8226C63.9832 23.4453 63.2918 23.2567 62.2439 23.2567H61.3924V48.0887ZM75.365 54.8572V16.5536H82.788V54.8572H75.365ZM89.1413 54.8572V23.9096H84.5783V16.5536H101.389V23.9096H96.8259V54.8572H89.1413ZM112.698 55.2053C109.627 55.2053 107.277 54.2841 105.646 52.4414C104.031 50.5843 103.223 47.9074 103.223 44.4107V26.2165C103.223 22.9375 104.024 20.4492 105.625 18.7517C107.24 17.0542 109.598 16.2053 112.698 16.2053C115.799 16.2053 118.149 17.0542 119.751 18.7517C121.365 20.4492 122.174 22.9375 122.174 26.2165V44.4107C122.174 47.9074 121.358 50.5843 119.728 52.4414C118.113 54.2841 115.769 55.2053 112.698 55.2053ZM112.764 48.154C113.928 48.154 114.511 47.0295 114.511 44.7807V26.086C114.511 24.1998 113.943 23.2567 112.807 23.2567C111.527 23.2567 110.886 24.2216 110.886 26.1513V44.8242C110.886 46.0139 111.032 46.87 111.323 47.3923C111.614 47.9002 112.094 48.154 112.764 48.154ZM125.273 54.8572V16.5536H137.063C139.029 16.5536 140.513 17.0033 141.517 17.9029C142.521 18.788 143.191 20.0357 143.526 21.6462C143.875 23.2422 144.049 25.1211 144.049 27.2829C144.049 29.3722 143.78 31.0407 143.242 32.2885C142.718 33.5363 141.721 34.3995 140.25 34.8783C141.459 35.125 142.303 35.7271 142.784 36.6847C143.278 37.6278 143.526 38.8538 143.526 40.3627V54.8572H135.949V39.8622C135.949 38.745 135.717 38.0558 135.251 37.7947C134.8 37.519 134.065 37.3811 133.046 37.3811V54.8572H125.273ZM133.09 30.7433H134.945C136.008 30.7433 136.539 29.5899 136.539 27.2829C136.539 25.7885 136.423 24.8092 136.19 24.3448C135.957 23.8806 135.52 23.6484 134.88 23.6484H133.09V30.7433ZM146.232 54.8572V16.5536H153.656V54.8572H146.232ZM155.664 54.8572L159.376 16.5536H172.41L176.056 54.8572H168.786L168.24 48.6764H163.611L163.131 54.8572H155.664ZM164.157 42.5608H167.651L165.97 23.0826H165.62L164.157 42.5608ZM178.413 54.8572V16.5536H186.099V48.3281H194.002V54.8572H178.413Z" fill="#121212"/>
<path d="M460.024 0H281.174C261.228 0 245.06 16.1178 245.06 36C245.06 55.8823 261.228 72 281.174 72H460.024C479.969 72 496.138 55.8823 496.138 36C496.138 16.1178 479.969 0 460.024 0Z" fill="white"/>
<path d="M284.596 54.8572V16.5536H295.01C297.805 16.5536 299.835 17.2355 301.102 18.5993C302.382 19.9486 303.022 22.183 303.022 25.3024V26.9782C303.022 28.7774 302.695 30.2355 302.04 31.3527C301.4 32.4699 300.417 33.2026 299.093 33.5508C300.825 33.9861 301.982 35.009 302.564 36.6195C303.161 38.2154 303.459 40.1668 303.459 42.4738C303.459 44.9548 303.226 47.1239 302.76 48.981C302.295 50.8382 301.451 52.2818 300.228 53.312C299.005 54.3421 297.266 54.8572 295.01 54.8572H284.596ZM292.107 30.9827H293.678C294.391 30.9827 294.85 30.7071 295.054 30.1557C295.258 29.6043 295.359 28.9442 295.359 28.1752V24.3232C295.359 23.0899 294.813 22.4733 293.722 22.4733H292.107V30.9827ZM292.871 48.1105C294.865 48.1105 295.862 47.1674 295.862 45.2812V40.4933C295.862 39.4052 295.694 38.5492 295.359 37.9252C295.04 37.2868 294.428 36.9676 293.525 36.9676H292.107V48.0669C292.426 48.096 292.681 48.1105 292.871 48.1105ZM305.642 54.8572V16.5536H313.066V54.8572H305.642ZM316.122 54.8572V16.5536H323.807V48.3281H331.71V54.8572H316.122ZM333.893 54.8572V16.5536H341.578V48.3281H349.481V54.8572H333.893ZM351.665 54.8572V16.5536H362.079C364.874 16.5536 366.904 17.2355 368.17 18.5993C369.451 19.9486 370.091 22.183 370.091 25.3024V26.9782C370.091 28.7774 369.764 30.2355 369.109 31.3527C368.469 32.4699 367.486 33.2026 366.162 33.5508C367.894 33.9861 369.051 35.009 369.633 36.6195C370.23 38.2154 370.528 40.1668 370.528 42.4738C370.528 44.9548 370.295 47.1239 369.829 48.981C369.364 50.8382 368.52 52.2818 367.297 53.312C366.074 54.3421 364.335 54.8572 362.079 54.8572H351.665ZM359.175 30.9827H360.747C361.46 30.9827 361.919 30.7071 362.123 30.1557C362.327 29.6043 362.428 28.9442 362.428 28.1752V24.3232C362.428 23.0899 361.882 22.4733 360.791 22.4733H359.175V30.9827ZM359.94 48.1105C361.934 48.1105 362.93 47.1674 362.93 45.2812V40.4933C362.93 39.4052 362.763 38.5492 362.428 37.9252C362.108 37.2868 361.497 36.9676 360.594 36.9676H359.175V48.0669C359.495 48.096 359.75 48.1105 359.94 48.1105ZM382.23 55.2053C379.159 55.2053 376.809 54.2841 375.178 52.4414C373.563 50.5843 372.755 47.9074 372.755 44.4107V26.2165C372.755 22.9375 373.556 20.4492 375.157 18.7517C376.772 17.0542 379.13 16.2053 382.23 16.2053C385.331 16.2053 387.681 17.0542 389.282 18.7517C390.897 20.4492 391.706 22.9375 391.706 26.2165V44.4107C391.706 47.9074 390.89 50.5843 389.26 52.4414C387.644 54.2841 385.301 55.2053 382.23 55.2053ZM382.296 48.154C383.46 48.154 384.043 47.0295 384.043 44.7807V26.086C384.043 24.1998 383.475 23.2567 382.339 23.2567C381.059 23.2567 380.418 24.2216 380.418 26.1513V44.8242C380.418 46.0139 380.564 46.87 380.855 47.3923C381.146 47.9002 381.626 48.154 382.296 48.154ZM393.758 54.8572L397.469 16.5536H410.503L414.149 54.8572H406.879L406.333 48.6764H401.705L401.224 54.8572H393.758ZM402.251 42.5608H405.744L404.063 23.0826H403.713L402.251 42.5608ZM416.507 54.8572V16.5536H428.297C430.262 16.5536 431.746 17.0033 432.75 17.9029C433.754 18.788 434.424 20.0357 434.759 21.6462C435.108 23.2422 435.283 25.1211 435.283 27.2829C435.283 29.3722 435.013 31.0407 434.475 32.2885C433.951 33.5363 432.954 34.3995 431.484 34.8783C432.692 35.125 433.536 35.7271 434.017 36.6847C434.511 37.6278 434.759 38.8538 434.759 40.3627V54.8572H427.183V39.8622C427.183 38.745 426.95 38.0558 426.484 37.7947C426.033 37.519 425.298 37.3811 424.28 37.3811V54.8572H416.507ZM424.323 30.7433H426.179C427.241 30.7433 427.772 29.5899 427.772 27.2829C427.772 25.7885 427.656 24.8092 427.423 24.3448C427.19 23.8806 426.753 23.6484 426.113 23.6484H424.323V30.7433ZM437.815 54.8572V16.5536H448.382C451.148 16.5536 453.229 17.3225 454.627 18.8605C456.024 20.3839 456.722 22.6183 456.722 25.5636V43.4967C456.722 47.1239 456.081 49.9241 454.801 51.8974C453.535 53.8706 451.307 54.8572 448.12 54.8572H437.815ZM445.544 48.0887H446.876C448.288 48.0887 448.994 47.4068 448.994 46.043V26.2818C448.994 25.005 448.819 24.1852 448.469 23.8226C448.135 23.4453 447.443 23.2567 446.395 23.2567H445.544V48.0887Z" fill="#121212"/>
<path d="M751.515 0H548.589C528.643 0 512.475 16.1178 512.475 36C512.475 55.8823 528.643 72 548.589 72H751.515C771.46 72 787.629 55.8823 787.629 36C787.629 16.1178 771.46 0 751.515 0Z" fill="white"/>
<path d="M547.095 54.8572L550.806 16.5536H563.84L567.486 54.8572H560.215L559.67 48.6764H555.042L554.561 54.8572H547.095ZM555.587 42.5608H559.08L557.399 23.0826H557.05L555.587 42.5608ZM569.844 54.8572V16.5536H580.411C583.176 16.5536 585.258 17.3225 586.655 18.8605C588.052 20.3839 588.75 22.6183 588.75 25.5636V43.4967C588.75 47.1239 588.11 49.9241 586.83 51.8974C585.563 53.8706 583.336 54.8572 580.148 54.8572H569.844ZM577.572 48.0887H578.904C580.316 48.0887 581.022 47.4068 581.022 46.043V26.2818C581.022 25.005 580.848 24.1852 580.498 23.8226C580.163 23.4453 579.472 23.2567 578.424 23.2567H577.572V48.0887ZM595.432 54.8572L590.694 16.5318H598.008L600.824 42.6044L603.335 16.5318H610.649L605.911 54.8572H595.432ZM612.897 54.8572V16.5536H628.267V23.9531H620.713V31.418H627.962V38.6217H620.713V47.3923H628.769V54.8572H612.897ZM631.324 54.8572V16.5536H643.113C645.078 16.5536 646.562 17.0033 647.566 17.9029C648.571 18.788 649.241 20.0357 649.575 21.6462C649.925 23.2422 650.1 25.1211 650.1 27.2829C650.1 29.3722 649.83 31.0407 649.291 32.2885C648.768 33.5363 647.77 34.3995 646.301 34.8783C647.509 35.125 648.352 35.7271 648.833 36.6847C649.328 37.6278 649.575 38.8538 649.575 40.3627V54.8572H642V39.8622C642 38.745 641.767 38.0558 641.301 37.7947C640.85 37.519 640.115 37.3811 639.096 37.3811V54.8572H631.324ZM639.14 30.7433H640.995C642.057 30.7433 642.589 29.5899 642.589 27.2829C642.589 25.7885 642.473 24.8092 642.24 24.3448C642.007 23.8806 641.57 23.6484 640.93 23.6484H639.14V30.7433ZM655.929 54.8572V23.9096H651.365V16.5536H668.176V23.9096H663.613V54.8572H655.929ZM669.967 54.8572V16.5536H677.39V54.8572H669.967ZM689.572 55.2053C686.065 55.2053 683.532 54.3348 681.975 52.5938C680.432 50.8527 679.661 48.0815 679.661 44.2802V40.5369H687.258V45.3248C687.258 46.2099 687.389 46.9063 687.651 47.4141C687.927 47.9073 688.4 48.154 689.07 48.154C689.768 48.154 690.249 47.9509 690.511 47.5447C690.787 47.1384 690.926 46.471 690.926 45.5424C690.926 44.3672 690.81 43.3878 690.577 42.6044C690.344 41.8064 689.936 41.0519 689.354 40.341C688.786 39.6155 687.993 38.774 686.974 37.8164L683.525 34.5519C680.949 32.1289 679.661 29.3578 679.661 26.2383C679.661 22.9738 680.417 20.4855 681.931 18.7734C683.459 17.0614 685.664 16.2053 688.546 16.2053C692.068 16.2053 694.565 17.1412 696.035 19.0128C697.519 20.8845 698.261 23.7282 698.261 27.5441H690.446V24.9107C690.446 24.3884 690.293 23.9822 689.987 23.692C689.696 23.4018 689.295 23.2567 688.786 23.2567C688.175 23.2567 687.724 23.4308 687.433 23.779C687.156 24.1127 687.018 24.548 687.018 25.0848C687.018 25.6216 687.164 26.202 687.454 26.8259C687.746 27.4498 688.32 28.168 689.179 28.9804L693.611 33.2243C694.499 34.0659 695.314 34.9582 696.056 35.9013C696.798 36.8298 697.395 37.918 697.847 39.1658C698.298 40.399 698.523 41.908 698.523 43.6925C698.523 47.2907 697.853 50.1127 696.515 52.1585C695.191 54.1898 692.876 55.2053 689.572 55.2053ZM700.75 54.8572V16.5536H708.174V54.8572H700.75ZM711.229 54.8572V16.5536H719.133L722.67 34.9001V16.5536H730.093V54.8572H722.583L718.74 35.7053V54.8572H711.229ZM741.424 55.2053C735.937 55.2053 733.193 51.2879 733.193 43.4531V26.9347C733.193 19.7818 736.337 16.2053 742.625 16.2053C745.215 16.2053 747.202 16.7277 748.585 17.7724C749.968 18.8025 750.921 20.3114 751.445 22.2991C751.969 24.2868 752.231 26.7099 752.231 29.5681H744.721V26.173C744.721 25.346 744.604 24.6568 744.371 24.1054C744.153 23.5396 743.687 23.2567 742.974 23.2567C742.086 23.2567 741.496 23.5541 741.206 24.149C740.929 24.7438 740.79 25.3968 740.79 26.1077V44.6719C740.79 45.702 740.922 46.5436 741.183 47.1964C741.46 47.8348 741.992 48.154 742.778 48.154C743.593 48.154 744.131 47.8348 744.393 47.1964C744.669 46.5436 744.808 45.6875 744.808 44.6283V39.1658H742.755V32.5497H752.143V54.8572H749.065L747.755 51.6362C746.417 54.0156 744.306 55.2053 741.424 55.2053Z" fill="#121212"/>
<path d="M1049.89 0H840.081C820.136 0 803.967 16.1178 803.967 36C803.967 55.8823 820.136 72 840.081 72H1049.89C1069.83 72 1086 55.8823 1086 36C1086 16.1178 1069.83 0 1049.89 0Z" fill="white"/>
<path d="M850.815 54.8572L846.689 16.5536H854.199L856.317 40.7327L858.478 16.5536H865.636L867.691 40.7327L869.746 16.5536H877.338L873.151 54.8572H863.933L862.016 36.4235L860.184 54.8572H850.815ZM879.634 54.8572V16.5536H895.008V23.9531H887.45V31.418H894.699V38.6217H887.45V47.3923H895.507V54.8572H879.634ZM898.061 54.8572V16.5536H908.474C911.268 16.5536 913.297 17.2355 914.561 18.5993C915.843 19.9486 916.488 22.183 916.488 25.3024V26.9782C916.488 28.7774 916.161 30.2355 915.507 31.3527C914.862 32.4699 913.882 33.2026 912.558 33.5508C914.286 33.9861 915.447 35.009 916.032 36.6195C916.625 38.2154 916.926 40.1668 916.926 42.4738C916.926 44.9548 916.694 47.1239 916.221 48.981C915.757 50.8382 914.914 52.2818 913.693 53.312C912.472 54.3421 910.727 54.8572 908.474 54.8572H898.061ZM905.567 30.9827H907.141C907.855 30.9827 908.31 30.7071 908.517 30.1557C908.723 29.6043 908.826 28.9442 908.826 28.1752V24.3232C908.826 23.0899 908.276 22.4733 907.184 22.4733H905.567V30.9827ZM906.333 48.1105C908.328 48.1105 909.325 47.1674 909.325 45.2812V40.4933C909.325 39.4052 909.162 38.5492 908.826 37.9252C908.499 37.2868 907.889 36.9676 906.986 36.9676H905.567V48.0669C905.894 48.096 906.144 48.1105 906.333 48.1105ZM929.936 54.8572V16.5536H940.503C943.272 16.5536 945.353 17.3225 946.746 18.8605C948.148 20.3839 948.844 22.6183 948.844 25.5636V43.4967C948.844 47.1239 948.199 49.9241 946.918 51.8974C945.654 53.8706 943.427 54.8572 940.237 54.8572H929.936ZM937.666 48.0887H938.999C940.409 48.0887 941.114 47.4068 941.114 46.043V26.2818C941.114 25.005 940.942 24.1852 940.589 23.8226C940.254 23.4453 939.566 23.2567 938.517 23.2567H937.666V48.0887ZM951.982 54.8572V16.5536H967.357V23.9531H959.799V31.418H967.047V38.6217H959.799V47.3923H967.855V54.8572H951.982ZM979.541 55.2053C976.033 55.2053 973.496 54.3348 971.94 52.5938C970.401 50.8527 969.627 48.0815 969.627 44.2802V40.5369H977.228V45.3248C977.228 46.2099 977.357 46.9063 977.615 47.4141C977.89 47.9073 978.363 48.154 979.034 48.154C979.739 48.154 980.212 47.9509 980.478 47.5447C980.753 47.1384 980.891 46.471 980.891 45.5424C980.891 44.3672 980.779 43.3878 980.547 42.6044C980.306 41.8064 979.902 41.0519 979.317 40.341C978.75 39.6155 977.959 38.774 976.944 37.8164L973.488 34.5519C970.917 32.1289 969.627 29.3578 969.627 26.2383C969.627 22.9738 970.383 20.4855 971.897 18.7734C973.427 17.0614 975.629 16.2053 978.509 16.2053C982.034 16.2053 984.528 17.1412 985.998 19.0128C987.486 20.8845 988.226 23.7282 988.226 27.5441H980.409V24.9107C980.409 24.3884 980.263 23.9822 979.954 23.692C979.661 23.4018 979.266 23.2567 978.75 23.2567C978.139 23.2567 977.692 23.4308 977.4 23.779C977.125 24.1127 976.987 24.548 976.987 25.0848C976.987 25.6216 977.133 26.202 977.417 26.8259C977.709 27.4498 978.285 28.168 979.145 28.9804L983.574 33.2243C984.468 34.0659 985.285 34.9582 986.024 35.9013C986.764 36.8298 987.366 37.918 987.813 39.1658C988.269 40.399 988.492 41.908 988.492 43.6925C988.492 47.2907 987.821 50.1127 986.48 52.1585C985.156 54.1898 982.843 55.2053 979.541 55.2053ZM990.719 54.8572V16.5536H998.14V54.8572H990.719ZM1009.12 55.2053C1003.63 55.2053 1000.89 51.2879 1000.89 43.4531V26.9347C1000.89 19.7818 1004.04 16.2053 1010.32 16.2053C1012.91 16.2053 1014.9 16.7277 1016.28 17.7724C1017.67 18.8025 1018.62 20.3114 1019.15 22.2991C1019.67 24.2868 1019.93 26.7099 1019.93 29.5681H1012.42V26.173C1012.42 25.346 1012.3 24.6568 1012.07 24.1054C1011.85 23.5396 1011.38 23.2567 1010.67 23.2567C1009.78 23.2567 1009.2 23.5541 1008.91 24.149C1008.63 24.7438 1008.49 25.3968 1008.49 26.1077V44.6719C1008.49 45.702 1008.62 46.5436 1008.88 47.1964C1009.15 47.8348 1009.69 48.154 1010.48 48.154C1011.29 48.154 1011.83 47.8348 1012.09 47.1964C1012.37 46.5436 1012.51 45.6875 1012.51 44.6283V39.1658H1010.45V32.5497H1019.84V54.8572H1016.76L1015.46 51.6362C1014.12 54.0156 1012 55.2053 1009.12 55.2053ZM1022.89 54.8572V16.5536H1030.8L1034.34 34.9001V16.5536H1041.76V54.8572H1034.25L1030.41 35.7053V54.8572H1022.89Z" fill="#121212"/>
</g>
<defs>
<clipPath id="clip0_1266_294">
<rect width="1086" height="72" fill="white"/>
</clipPath>
</defs>
</svg>
