<svg width="852" height="72" viewBox="0 0 852 72" fill="none" xmlns="http://www.w3.org/2000/svg">
<g clip-path="url(#clip0_1262_67)">
<path d="M145.692 0H35.784C16.021 0 0 16.1178 0 36C0 55.8823 16.021 72 35.784 72H145.692C165.455 72 181.476 55.8823 181.476 36C181.476 16.1178 165.455 0 145.692 0Z" fill="white"/>
<path d="M32.3594 54.8572V16.5536H42.8296C45.5698 16.5536 47.6321 17.3225 49.0166 18.8605C50.4011 20.3839 51.0934 22.6183 51.0934 25.5636V43.4967C51.0934 47.1239 50.4588 49.9241 49.1897 51.8974C47.935 53.8706 45.7284 54.8572 42.57 54.8572H32.3594ZM40.0174 48.0887H41.337C42.7359 48.0887 43.4354 47.4068 43.4354 46.043V26.2818C43.4354 25.005 43.2623 24.1852 42.9162 23.8226C42.5845 23.4453 41.8994 23.2567 40.8611 23.2567H40.0174V48.0887ZM53.8624 54.8572V16.5536H61.2176V54.8572H53.8624ZM72.0988 55.2053C66.6617 55.2053 63.9433 51.2879 63.9433 43.4531V26.9347C63.9433 19.7818 67.0584 16.2053 73.2886 16.2053C75.8558 16.2053 77.8243 16.7277 79.1944 17.7724C80.5644 18.8025 81.5091 20.3114 82.0282 22.2991C82.5475 24.2868 82.8071 26.7099 82.8071 29.5681H75.3654V26.173C75.3654 25.346 75.25 24.6568 75.0193 24.1054C74.8029 23.5396 74.3414 23.2567 73.6348 23.2567C72.755 23.2567 72.171 23.5541 71.8825 24.149C71.6085 24.7438 71.4715 25.3968 71.4715 26.1077V44.6719C71.4715 45.702 71.6013 46.5436 71.8609 47.1964C72.1349 47.8348 72.6613 48.154 73.4401 48.154C74.2477 48.154 74.7813 47.8348 75.0409 47.1964C75.3149 46.5436 75.4519 45.6875 75.4519 44.6283V39.1658H73.4184V32.5497H82.7205V54.8572H79.6703L78.3723 51.6362C77.0455 54.0156 74.9543 55.2053 72.0988 55.2053ZM85.4028 54.8572V16.5536H92.7581V54.8572H85.4028ZM99.0535 54.8572V23.9096H94.5319V16.5536H111.189V23.9096H106.668V54.8572H99.0535ZM111.708 54.8572L115.386 16.5536H128.301L131.913 54.8572H124.71L124.169 48.6764H119.582L119.107 54.8572H111.708ZM120.123 42.5608H123.585L121.919 23.0826H121.573L120.123 42.5608ZM134.25 54.8572V16.5536H141.865V48.3281H149.696V54.8572H134.25Z" fill="#121212"/>
<path d="M394.476 0H234.3C214.537 0 198.516 16.1178 198.516 36C198.516 55.8823 214.537 72 234.3 72H394.476C414.239 72 430.26 55.8823 430.26 36C430.26 16.1178 414.239 0 394.476 0Z" fill="white"/>
<path d="M232.153 54.8572V16.5536H242.472C245.241 16.5536 247.253 17.2355 248.508 18.5993C249.776 19.9486 250.411 22.183 250.411 25.3024V26.9782C250.411 28.7774 250.087 30.2355 249.438 31.3527C248.803 32.4699 247.83 33.2026 246.518 33.5508C248.233 33.9861 249.38 35.009 249.957 36.6195C250.548 38.2154 250.844 40.1668 250.844 42.4738C250.844 44.9548 250.613 47.1239 250.151 48.981C249.69 50.8382 248.854 52.2818 247.642 53.312C246.431 54.3421 244.707 54.8572 242.472 54.8572H232.153ZM239.595 30.9827H241.152C241.859 30.9827 242.314 30.7071 242.516 30.1557C242.718 29.6043 242.818 28.9442 242.818 28.1752V24.3232C242.818 23.0899 242.277 22.4733 241.196 22.4733H239.595V30.9827ZM240.352 48.1105C242.328 48.1105 243.316 47.1674 243.316 45.2812V40.4933C243.316 39.4052 243.15 38.5492 242.818 37.9252C242.501 37.2868 241.895 36.9676 241.001 36.9676H239.595V48.0669C239.912 48.096 240.164 48.1105 240.352 48.1105ZM253.353 54.8572V16.5536H265.035C266.982 16.5536 268.453 17.0033 269.448 17.9029C270.443 18.788 271.107 20.0357 271.439 21.6462C271.784 23.2422 271.957 25.1211 271.957 27.2829C271.957 29.3722 271.691 31.0407 271.157 32.2885C270.638 33.5363 269.65 34.3995 268.193 34.8783C269.39 35.125 270.227 35.7271 270.703 36.6847C271.193 37.6278 271.439 38.8538 271.439 40.3627V54.8572H263.932V39.8622C263.932 38.745 263.701 38.0558 263.24 37.7947C262.792 37.519 262.064 37.3811 261.054 37.3811V54.8572H253.353ZM261.098 30.7433H262.936C263.99 30.7433 264.516 29.5899 264.516 27.2829C264.516 25.7885 264.4 24.8092 264.17 24.3448C263.939 23.8806 263.506 23.6484 262.872 23.6484H261.098V30.7433ZM283.553 55.2053C280.51 55.2053 278.18 54.2841 276.565 52.4414C274.965 50.5843 274.164 47.9074 274.164 44.4107V26.2165C274.164 22.9375 274.957 20.4492 276.544 18.7517C278.145 17.0542 280.481 16.2053 283.553 16.2053C286.625 16.2053 288.954 17.0542 290.54 18.7517C292.141 20.4492 292.941 22.9375 292.941 26.2165V44.4107C292.941 47.9074 292.134 50.5843 290.518 52.4414C288.917 54.2841 286.596 55.2053 283.553 55.2053ZM283.618 48.154C284.772 48.154 285.348 47.0295 285.348 44.7807V26.086C285.348 24.1998 284.786 23.2567 283.661 23.2567C282.392 23.2567 281.757 24.2216 281.757 26.1513V44.8242C281.757 46.0139 281.901 46.87 282.19 47.3923C282.479 47.9002 282.954 48.154 283.618 48.154ZM304.883 55.2053C302.128 55.2053 299.907 54.3421 298.219 52.6156C296.547 50.8889 295.71 48.4732 295.71 45.3683V27.6964C295.71 23.9822 296.439 21.1384 297.896 19.1652C299.366 17.192 301.754 16.2053 305.056 16.2053C306.859 16.2053 308.46 16.5391 309.859 17.2065C311.271 17.8739 312.382 18.875 313.19 20.2098C313.998 21.5302 314.401 23.1987 314.401 25.2154V31.8315H306.83V26.173C306.83 25.0268 306.686 24.2578 306.397 23.8661C306.109 23.4598 305.662 23.2567 305.056 23.2567C304.349 23.2567 303.873 23.5179 303.628 24.0402C303.383 24.548 303.26 25.2299 303.26 26.086V45.2595C303.26 46.3186 303.412 47.0659 303.715 47.5012C304.032 47.9364 304.479 48.154 305.056 48.154C305.705 48.154 306.159 47.8856 306.418 47.3488C306.693 46.8119 306.83 46.1155 306.83 45.2595V38.3605H314.488V45.6077C314.488 48.9738 313.644 51.4185 311.956 52.9419C310.269 54.4509 307.911 55.2053 304.883 55.2053ZM317.04 54.8572V16.5536H324.612V30.2428H328.203V16.5536H335.775V54.8572H328.203V37.49H324.612V54.8572H317.04ZM347.953 55.2053C344.781 55.2053 342.444 54.313 340.945 52.5285C339.445 50.7293 338.695 48.0887 338.695 44.6066V16.5536H346.093V44.3019C346.093 44.9403 346.129 45.5569 346.202 46.1518C346.273 46.7321 346.439 47.2109 346.699 47.5882C346.959 47.9654 347.376 48.154 347.953 48.154C348.545 48.154 348.971 47.9727 349.23 47.6099C349.489 47.2327 349.648 46.7467 349.706 46.1518C349.778 45.5569 349.814 44.9403 349.814 44.3019V16.5536H357.213V44.6066C357.213 48.0887 356.462 50.7293 354.963 52.5285C353.463 54.313 351.126 55.2053 347.953 55.2053ZM360.133 54.8572V16.5536H371.814C373.762 16.5536 375.233 17.0033 376.228 17.9029C377.223 18.788 377.887 20.0357 378.218 21.6462C378.564 23.2422 378.737 25.1211 378.737 27.2829C378.737 29.3722 378.47 31.0407 377.937 32.2885C377.418 33.5363 376.43 34.3995 374.973 34.8783C376.17 35.125 377.006 35.7271 377.483 36.6847C377.973 37.6278 378.218 38.8538 378.218 40.3627V54.8572H370.711V39.8622C370.711 38.745 370.481 38.0558 370.019 37.7947C369.572 37.519 368.843 37.3811 367.834 37.3811V54.8572H360.133ZM367.877 30.7433H369.716C370.769 30.7433 371.296 29.5899 371.296 27.2829C371.296 25.7885 371.18 24.8092 370.95 24.3448C370.719 23.8806 370.286 23.6484 369.651 23.6484H367.877V30.7433ZM381.247 54.8572V16.5536H396.476V23.9531H388.991V31.418H396.173V38.6217H388.991V47.3923H396.974V54.8572H381.247Z" fill="#121212"/>
<path d="M564.876 0H483.084C463.321 0 447.3 16.1178 447.3 36C447.3 55.8823 463.321 72 483.084 72H564.876C584.639 72 600.66 55.8823 600.66 36C600.66 16.1178 584.639 0 564.876 0Z" fill="white"/>
<path d="M484.345 54.8572V16.5536H491.96V48.3281H499.791V54.8572H484.345ZM511.04 55.2053C507.997 55.2053 505.668 54.2841 504.052 52.4414C502.451 50.5843 501.651 47.9074 501.651 44.4107V26.2165C501.651 22.9375 502.445 20.4492 504.031 18.7517C505.632 17.0542 507.968 16.2053 511.04 16.2053C514.112 16.2053 516.441 17.0542 518.028 18.7517C519.629 20.4492 520.429 22.9375 520.429 26.2165V44.4107C520.429 47.9074 519.621 50.5843 518.006 52.4414C516.405 54.2841 514.083 55.2053 511.04 55.2053ZM511.105 48.154C512.259 48.154 512.836 47.0295 512.836 44.7807V26.086C512.836 24.1998 512.273 23.2567 511.148 23.2567C509.879 23.2567 509.244 24.2216 509.244 26.1513V44.8242C509.244 46.0139 509.388 46.87 509.677 47.3923C509.965 47.9002 510.441 48.154 511.105 48.154ZM531.353 55.2053C525.916 55.2053 523.198 51.2879 523.198 43.4531V26.9347C523.198 19.7818 526.313 16.2053 532.543 16.2053C535.11 16.2053 537.078 16.7277 538.448 17.7724C539.818 18.8025 540.763 20.3114 541.283 22.2991C541.802 24.2868 542.062 26.7099 542.062 29.5681H534.62V26.173C534.62 25.346 534.505 24.6568 534.274 24.1054C534.057 23.5396 533.595 23.2567 532.889 23.2567C532.009 23.2567 531.425 23.5541 531.137 24.149C530.863 24.7438 530.726 25.3968 530.726 26.1077V44.6719C530.726 45.702 530.855 46.5436 531.115 47.1964C531.39 47.8348 531.915 48.154 532.695 48.154C533.502 48.154 534.036 47.8348 534.295 47.1964C534.569 46.5436 534.706 45.6875 534.706 44.6283V39.1658H532.673V32.5497H541.975V54.8572H538.925L537.627 51.6362C536.3 54.0156 534.209 55.2053 531.353 55.2053ZM554.089 55.2053C551.046 55.2053 548.718 54.2841 547.102 52.4414C545.501 50.5843 544.7 47.9074 544.7 44.4107V26.2165C544.7 22.9375 545.494 20.4492 547.08 18.7517C548.681 17.0542 551.017 16.2053 554.089 16.2053C557.161 16.2053 559.49 17.0542 561.077 18.7517C562.678 20.4492 563.478 22.9375 563.478 26.2165V44.4107C563.478 47.9074 562.67 50.5843 561.055 52.4414C559.454 54.2841 557.132 55.2053 554.089 55.2053ZM554.154 48.154C555.308 48.154 555.885 47.0295 555.885 44.7807V26.086C555.885 24.1998 555.322 23.2567 554.198 23.2567C552.928 23.2567 552.293 24.2216 552.293 26.1513V44.8242C552.293 46.0139 552.438 46.87 552.726 47.3923C553.015 47.9002 553.491 48.154 554.154 48.154Z" fill="#121212"/>
<path d="M816.216 0H653.484C633.721 0 617.7 16.1178 617.7 36C617.7 55.8823 633.721 72 653.484 72H816.216C835.979 72 852 55.8823 852 36C852 16.1178 835.979 0 816.216 0Z" fill="white"/>
<path d="M655.597 54.8572V16.5536H665.917C668.686 16.5536 670.697 17.2355 671.952 18.5993C673.221 19.9486 673.856 22.183 673.856 25.3024V26.9782C673.856 28.7774 673.531 30.2355 672.883 31.3527C672.248 32.4699 671.274 33.2026 669.962 33.5508C671.678 33.9861 672.825 35.009 673.401 36.6195C673.993 38.2154 674.288 40.1668 674.288 42.4738C674.288 44.9548 674.057 47.1239 673.596 48.981C673.135 50.8382 672.298 52.2818 671.087 53.312C669.875 54.3421 668.151 54.8572 665.917 54.8572H655.597ZM663.039 30.9827H664.597C665.303 30.9827 665.758 30.7071 665.96 30.1557C666.162 29.6043 666.263 28.9442 666.263 28.1752V24.3232C666.263 23.0899 665.721 22.4733 664.64 22.4733H663.039V30.9827ZM663.797 48.1105C665.773 48.1105 666.76 47.1674 666.76 45.2812V40.4933C666.76 39.4052 666.594 38.5492 666.263 37.9252C665.946 37.2868 665.34 36.9676 664.445 36.9676H663.039V48.0669C663.356 48.096 663.609 48.1105 663.797 48.1105ZM676.797 54.8572V16.5536H688.479C690.426 16.5536 691.898 17.0033 692.893 17.9029C693.888 18.788 694.551 20.0357 694.883 21.6462C695.229 23.2422 695.402 25.1211 695.402 27.2829C695.402 29.3722 695.135 31.0407 694.602 32.2885C694.082 33.5363 693.095 34.3995 691.638 34.8783C692.835 35.125 693.671 35.7271 694.148 36.6847C694.638 37.6278 694.883 38.8538 694.883 40.3627V54.8572H687.376V39.8622C687.376 38.745 687.145 38.0558 686.684 37.7947C686.237 37.519 685.508 37.3811 684.499 37.3811V54.8572H676.797ZM684.542 30.7433H686.381C687.434 30.7433 687.96 29.5899 687.96 27.2829C687.96 25.7885 687.845 24.8092 687.615 24.3448C687.384 23.8806 686.951 23.6484 686.316 23.6484H684.542V30.7433ZM696.873 54.8572L700.55 16.5536H713.465L717.078 54.8572H709.875L709.334 48.6764H704.747L704.271 54.8572H696.873ZM705.288 42.5608H708.749L707.084 23.0826H706.738L705.288 42.5608ZM719.415 54.8572V16.5536H727.245L730.75 34.9001V16.5536H738.105V54.8572H730.663L726.856 35.7053V54.8572H719.415ZM741.48 54.8572V16.5536H751.95C754.69 16.5536 756.753 17.3225 758.137 18.8605C759.522 20.3839 760.214 22.6183 760.214 25.5636V43.4967C760.214 47.1239 759.58 49.9241 758.31 51.8974C757.055 53.8706 754.849 54.8572 751.691 54.8572H741.48ZM749.138 48.0887H750.457C751.856 48.0887 752.556 47.4068 752.556 46.043V26.2818C752.556 25.005 752.383 24.1852 752.037 23.8226C751.705 23.4453 751.02 23.2567 749.982 23.2567H749.138V48.0887ZM762.983 54.8572V16.5536H770.338V54.8572H762.983ZM773.367 54.8572V16.5536H781.197L784.702 34.9001V16.5536H792.058V54.8572H784.616L780.808 35.7053V54.8572H773.367ZM803.285 55.2053C797.848 55.2053 795.129 51.2879 795.129 43.4531V26.9347C795.129 19.7818 798.244 16.2053 804.475 16.2053C807.042 16.2053 809.01 16.7277 810.38 17.7724C811.75 18.8025 812.695 20.3114 813.215 22.2991C813.733 24.2868 813.993 26.7099 813.993 29.5681H806.551V26.173C806.551 25.346 806.436 24.6568 806.205 24.1054C805.989 23.5396 805.527 23.2567 804.821 23.2567C803.941 23.2567 803.357 23.5541 803.068 24.149C802.795 24.7438 802.657 25.3968 802.657 26.1077V44.6719C802.657 45.702 802.787 46.5436 803.047 47.1964C803.321 47.8348 803.847 48.154 804.626 48.154C805.433 48.154 805.968 47.8348 806.227 47.1964C806.501 46.5436 806.638 45.6875 806.638 44.6283V39.1658H804.604V32.5497H813.906V54.8572H810.856L809.559 51.6362C808.231 54.0156 806.14 55.2053 803.285 55.2053Z" fill="#121212"/>
</g>
<defs>
<clipPath id="clip0_1262_67">
<rect width="852" height="72" fill="white"/>
</clipPath>
</defs>
</svg>
