<svg width="869" height="69" viewBox="0 0 869 69" fill="none" xmlns="http://www.w3.org/2000/svg">
<g clip-path="url(#clip0_1262_76)">
<path d="M139.792 0H34.3349C15.3723 0 0 15.4462 0 34.5C0 53.5538 15.3723 69 34.3349 69H139.792C158.755 69 174.127 53.5538 174.127 34.5C174.127 15.4462 158.755 0 139.792 0Z" fill="white"/>
<path d="M31.0488 52.5714V15.8638H40.7007C42.7211 15.8638 44.3193 16.3157 45.4955 17.2195C46.6856 18.1233 47.5366 19.4095 48.0486 21.078C48.5606 22.7465 48.8166 24.7349 48.8166 27.043C48.8166 29.2677 48.6021 31.2073 48.1731 32.862C47.7442 34.5027 46.9761 35.7749 45.8692 36.6787C44.7759 37.5825 43.2192 38.0344 41.1989 38.0344H38.2306V52.5714H31.0488ZM38.2306 31.4437H38.6458C40.0019 31.4437 40.8322 31.0613 41.1366 30.2966C41.441 29.5318 41.5932 28.4056 41.5932 26.9178C41.5932 25.5274 41.441 24.4567 41.1366 23.7059C40.846 22.9412 40.1472 22.5588 39.0402 22.5588H38.2306V31.4437ZM59.8592 52.9051C56.9394 52.9051 54.7046 52.0222 53.1548 50.2563C51.6188 48.4766 50.8507 45.9112 50.8507 42.5603V25.1241C50.8507 21.9818 51.6118 19.5971 53.134 17.9704C54.67 16.3436 56.9118 15.5301 59.8592 15.5301C62.8067 15.5301 65.0414 16.3436 66.5636 17.9704C68.0996 19.5971 68.8677 21.9818 68.8677 25.1241V42.5603C68.8677 45.9112 68.0928 48.4766 66.5429 50.2563C65.0069 52.0222 62.779 52.9051 59.8592 52.9051ZM59.9215 46.1476C61.0285 46.1476 61.582 45.07 61.582 42.9148V24.999C61.582 23.1915 61.0423 22.2877 59.963 22.2877C58.7452 22.2877 58.1364 23.2123 58.1364 25.0616V42.9565C58.1364 44.0967 58.2748 44.917 58.5515 45.4176C58.8283 45.9043 59.285 46.1476 59.9215 46.1476ZM80.4914 52.9051C77.1565 52.9051 74.7487 52.0708 73.2681 50.4024C71.8013 48.7338 71.0679 46.0781 71.0679 42.4352V38.8478H78.2912V43.4362C78.2912 44.2844 78.4158 44.9519 78.6649 45.4385C78.9278 45.9112 79.3775 46.1476 80.0141 46.1476C80.6783 46.1476 81.1349 45.9529 81.384 45.5637C81.6469 45.1743 81.7782 44.5347 81.7782 43.6448C81.7782 42.5185 81.6676 41.58 81.4463 40.8292C81.2249 40.0644 80.8374 39.3414 80.2839 38.6601C79.7442 37.9649 78.99 37.1584 78.0214 36.2407L74.7418 33.1122C72.2925 30.7902 71.0679 28.1345 71.0679 25.145C71.0679 22.0165 71.7874 19.6319 73.2266 17.9912C74.6796 16.3505 76.776 15.5301 79.5159 15.5301C82.8647 15.5301 85.2379 16.4269 86.6358 18.2206C88.0468 20.0143 88.7523 22.7395 88.7523 26.3964H81.3217V23.8728C81.3217 23.3722 81.1764 22.9829 80.8859 22.7048C80.6091 22.4267 80.2285 22.2877 79.7442 22.2877C79.163 22.2877 78.734 22.4545 78.4573 22.7882C78.1943 23.108 78.0629 23.5251 78.0629 24.0396C78.0629 24.5541 78.2013 25.1102 78.478 25.7082C78.7548 26.306 79.3014 26.9943 80.1178 27.7729L84.3313 31.84C85.1758 32.6464 85.9507 33.5015 86.6562 34.4054C87.3617 35.2952 87.9291 36.338 88.3583 37.5339C88.7875 38.7157 89.0016 40.1618 89.0016 41.872C89.0016 45.3203 88.3648 48.0247 87.092 49.9852C85.833 51.9319 83.6323 52.9051 80.4914 52.9051ZM94.5852 52.5714V22.9133H90.2475V15.8638H106.23V22.9133H101.892V52.5714H94.5852ZM108.264 52.5714V15.8638H122.877V22.9551H115.695V30.1089H122.586V37.0124H115.695V45.4176H123.355V52.5714H108.264ZM125.783 52.5714V15.8638H136.991C138.859 15.8638 140.271 16.2948 141.226 17.1569C142.181 18.0051 142.818 19.2009 143.136 20.7443C143.467 22.2738 143.633 24.0743 143.633 26.1461C143.633 28.1484 143.378 29.7474 142.866 30.9431C142.367 32.139 141.42 32.9662 140.022 33.4251C141.17 33.6615 141.973 34.2385 142.43 35.1562C142.9 36.06 143.136 37.2349 143.136 38.6809V52.5714H135.933V38.2013C135.933 37.1306 135.711 36.4701 135.269 36.2199C134.84 35.9556 134.141 35.8236 133.172 35.8236V52.5714H125.783ZM133.214 29.4623H134.978C135.988 29.4623 136.493 28.3569 136.493 26.1461C136.493 24.714 136.382 23.7754 136.161 23.3305C135.94 22.8856 135.525 22.663 134.916 22.663H133.214V29.4623Z" fill="#121212"/>
<path d="M315.387 0H225.462C206.499 0 191.127 15.4462 191.127 34.5C191.127 53.5538 206.499 69 225.462 69H315.387C334.349 69 349.721 53.5538 349.721 34.5C349.721 15.4462 334.349 0 315.387 0Z" fill="white"/>
<path d="M227.081 52.5714V15.8638H241.693V23.0177H234.429V28.8575H241.32V35.9279H234.429V52.5714H227.081ZM244.06 52.5714V15.8638H251.367V46.3144H258.88V52.5714H244.06ZM264.049 52.5714V40.4954L258.216 15.8638H265.46L267.494 28.2943L269.528 15.8638H276.752L270.94 40.4954V52.5714H264.049ZM278.599 52.5714V15.8638H293.212V22.9551H286.03V30.1089H292.922V37.0124H286.03V45.4176H293.689V52.5714H278.599ZM296.118 52.5714V15.8638H307.327C309.195 15.8638 310.606 16.2948 311.561 17.1569C312.516 18.0051 313.152 19.2009 313.47 20.7443C313.802 22.2738 313.969 24.0743 313.969 26.1461C313.969 28.1484 313.712 29.7474 313.201 30.9431C312.703 32.139 311.755 32.9662 310.357 33.4251C311.506 33.6615 312.308 34.2385 312.765 35.1562C313.235 36.06 313.47 37.2349 313.47 38.6809V52.5714H306.268V38.2013C306.268 37.1306 306.047 36.4701 305.604 36.2199C305.174 35.9556 304.476 35.8236 303.508 35.8236V52.5714H296.118ZM303.549 29.4623H305.313C306.323 29.4623 306.828 28.3569 306.828 26.1461C306.828 24.714 306.718 23.7754 306.496 23.3305C306.275 22.8856 305.86 22.663 305.251 22.663H303.549V29.4623Z" fill="#121212"/>
<path d="M836.615 0H696.006C677.043 0 661.671 15.4462 661.671 34.5C661.671 53.5538 677.043 69 696.006 69H836.615C855.578 69 870.95 53.5538 870.95 34.5C870.95 15.4462 855.578 0 836.615 0Z" fill="white"/>
<path d="M702.456 52.9051C699.813 52.9051 697.682 52.0778 696.063 50.4232C694.458 48.7685 693.655 46.4535 693.655 43.478V26.5424C693.655 22.9829 694.354 20.2577 695.751 18.3666C697.163 16.4756 699.453 15.5301 702.622 15.5301C704.352 15.5301 705.888 15.85 707.23 16.4895C708.586 17.1292 709.652 18.0885 710.427 19.3677C711.202 20.6331 711.589 22.232 711.589 24.1648V30.5051H704.324V25.0825C704.324 23.984 704.186 23.2471 703.909 22.8717C703.632 22.4823 703.204 22.2877 702.622 22.2877C701.944 22.2877 701.488 22.5379 701.252 23.0385C701.017 23.5251 700.899 24.1787 700.899 24.999V43.3736C700.899 44.3887 701.045 45.1048 701.336 45.5219C701.64 45.939 702.069 46.1476 702.622 46.1476C703.245 46.1476 703.681 45.8903 703.93 45.3759C704.193 44.8614 704.324 44.194 704.324 43.3736V36.7621H711.672V43.7074C711.672 46.9332 710.863 49.2761 709.243 50.736C707.625 52.1821 705.362 52.9051 702.456 52.9051ZM714.121 52.5714V15.8638H721.428V46.3144H728.942V52.5714H714.121ZM739.735 52.9051C736.816 52.9051 734.581 52.0222 733.031 50.2563C731.495 48.4766 730.727 45.9112 730.727 42.5603V25.1241C730.727 21.9818 731.488 19.5971 733.01 17.9704C734.546 16.3436 736.788 15.5301 739.735 15.5301C742.683 15.5301 744.917 16.3436 746.439 17.9704C747.976 19.5971 748.744 21.9818 748.744 25.1241V42.5603C748.744 45.9112 747.969 48.4766 746.419 50.2563C744.883 52.0222 742.655 52.9051 739.735 52.9051ZM739.797 46.1476C740.905 46.1476 741.458 45.07 741.458 42.9148V24.999C741.458 23.1915 740.918 22.2877 739.839 22.2877C738.622 22.2877 738.013 23.2123 738.013 25.0616V42.9565C738.013 44.0967 738.151 44.917 738.428 45.4176C738.704 45.9043 739.161 46.1476 739.797 46.1476ZM754.825 52.5714V22.9133H750.488V15.8638H766.47V22.9133H762.132V52.5714H754.825ZM768.505 52.5714V15.8638H775.769V28.9826H779.215V15.8638H786.48V52.5714H779.215V35.9279H775.769V52.5714H768.505ZM789.386 52.5714V15.8638H796.443V52.5714H789.386ZM799.349 52.5714V15.8638H806.862L810.226 33.4459V15.8638H817.283V52.5714H810.142L806.489 34.2176V52.5714H799.349ZM828.056 52.9051C822.84 52.9051 820.233 49.1509 820.233 41.6426V25.8124C820.233 18.9576 823.216 15.5301 829.2 15.5301C831.661 15.5301 833.55 16.0307 834.866 17.0318C836.182 18.019 837.081 19.4651 837.58 21.37C838.078 23.2748 838.332 25.5969 838.332 28.3361H831.187V25.0825C831.187 24.2899 831.081 23.6295 830.86 23.101C830.647 22.5588 830.206 22.2877 829.527 22.2877C828.685 22.2877 828.121 22.5727 827.852 23.1428C827.582 23.7128 827.451 24.3386 827.451 25.0199V42.8106C827.451 43.7977 827.582 44.6042 827.827 45.2299C828.089 45.8417 828.595 46.1476 829.339 46.1476C830.116 46.1476 830.631 45.8417 830.876 45.2299C831.138 44.6042 831.269 43.7839 831.269 42.7688V37.5339H829.323V31.1934H838.25V52.5714H835.324L834.073 49.4847C832.806 51.7649 830.795 52.9051 828.056 52.9051Z" fill="#121212"/>
<path d="M610.336 0H401.057C382.094 0 366.722 15.4462 366.722 34.5C366.722 53.5538 382.094 69 401.057 69H610.336C629.299 69 644.671 53.5538 644.671 34.5C644.671 15.4462 629.299 0 610.336 0Z" fill="white"/>
<path d="M411.123 52.5714V22.9133H406.786V15.8638H422.769V22.9133H418.43V52.5714H411.123ZM429.224 52.5714V40.4954L423.391 15.8638H430.635L432.669 28.2944L434.703 15.8638H441.927L436.115 40.4954V52.5714H429.224ZM443.774 52.5714V15.8638H453.426C455.446 15.8638 457.045 16.3157 458.221 17.2195C459.411 18.1233 460.262 19.4095 460.774 21.078C461.286 22.7465 461.542 24.7349 461.542 27.043C461.542 29.2677 461.327 31.2073 460.898 32.862C460.469 34.5027 459.701 35.7749 458.595 36.6787C457.502 37.5825 455.944 38.0344 453.924 38.0344H450.956V52.5714H443.774ZM450.956 31.4437H451.371C452.727 31.4437 453.557 31.0613 453.862 30.2966C454.166 29.5318 454.318 28.4056 454.318 26.9178C454.318 25.5274 454.166 24.4567 453.862 23.7059C453.571 22.9412 452.872 22.5588 451.765 22.5588H450.956V31.4437ZM472.584 52.9051C469.664 52.9051 467.43 52.0222 465.88 50.2563C464.344 48.4766 463.576 45.9112 463.576 42.5603V25.1241C463.576 21.9818 464.338 19.5971 465.86 17.9704C467.395 16.3436 469.637 15.5301 472.584 15.5301C475.532 15.5301 477.767 16.3436 479.289 17.9704C480.825 19.5971 481.593 21.9818 481.593 25.1241V42.5603C481.593 45.9112 480.818 48.4766 479.268 50.2563C477.732 52.0222 475.504 52.9051 472.584 52.9051ZM472.647 46.1476C473.753 46.1476 474.308 45.07 474.308 42.9148V24.999C474.308 23.1915 473.767 22.2877 472.688 22.2877C471.47 22.2877 470.862 23.2123 470.862 25.0616V42.9565C470.862 44.0967 471 44.917 471.276 45.4176C471.554 45.9043 472.011 46.1476 472.647 46.1476ZM492.075 52.9051C486.858 52.9051 484.25 49.1509 484.25 41.6426V25.8124C484.25 18.9576 487.239 15.5301 493.216 15.5301C495.68 15.5301 497.569 16.0307 498.883 17.0318C500.198 18.019 501.104 19.4651 501.602 21.37C502.101 23.2748 502.349 25.5969 502.349 28.3361H495.209V25.0825C495.209 24.2899 495.098 23.6295 494.878 23.101C494.67 22.5588 494.227 22.2877 493.549 22.2877C492.705 22.2877 492.145 22.5727 491.868 23.1428C491.604 23.7128 491.473 24.3386 491.473 25.0199V42.8106C491.473 43.7977 491.598 44.6042 491.847 45.2299C492.11 45.8417 492.615 46.1476 493.362 46.1476C494.137 46.1476 494.649 45.8417 494.898 45.2299C495.161 44.6042 495.292 43.7839 495.292 42.7688V37.5339H493.342V31.1934H502.267V52.5714H499.34L498.094 49.4847C496.822 51.7649 494.815 52.9051 492.075 52.9051ZM505.172 52.5714V15.8638H516.381C518.249 15.8638 519.661 16.2948 520.616 17.1569C521.57 18.0051 522.207 19.2009 522.525 20.7443C522.857 22.2738 523.023 24.0743 523.023 26.1461C523.023 28.1484 522.767 29.7474 522.256 30.9431C521.757 32.139 520.809 32.9662 519.411 33.4251C520.56 33.6615 521.363 34.2385 521.82 35.1562C522.29 36.06 522.525 37.2349 522.525 38.6809V52.5714H515.322V38.2013C515.322 37.1306 515.102 36.4701 514.659 36.2199C514.229 35.9556 513.53 35.8236 512.562 35.8236V52.5714H505.172ZM512.603 29.4623H514.368C515.378 29.4623 515.883 28.3569 515.883 26.1461C515.883 24.714 515.773 23.7754 515.551 23.3305C515.33 22.8856 514.914 22.663 514.305 22.663H512.603V29.4623ZM524.435 52.5714L527.963 15.8638H540.355L543.822 52.5714H536.91L536.391 46.6482H531.99L531.533 52.5714H524.435ZM532.509 40.7875H535.83L534.232 22.1208H533.9L532.509 40.7875ZM546.064 52.5714V15.8638H555.716C557.736 15.8638 559.334 16.3157 560.51 17.2195C561.701 18.1233 562.552 19.4095 563.063 21.078C563.575 22.7465 563.831 24.7349 563.831 27.043C563.831 29.2677 563.617 31.2073 563.188 32.862C562.758 34.5027 561.991 35.7749 560.884 36.6787C559.791 37.5825 558.234 38.0344 556.214 38.0344H553.245V52.5714H546.064ZM553.245 31.4437H553.661C555.017 31.4437 555.847 31.0613 556.151 30.2966C556.456 29.5318 556.608 28.4056 556.608 26.9178C556.608 25.5274 556.456 24.4567 556.151 23.7059C555.86 22.9412 555.161 22.5588 554.055 22.5588H553.245V31.4437ZM566.156 52.5714V15.8638H573.421V28.9826H576.867V15.8638H584.131V52.5714H576.867V35.9279H573.421V52.5714H566.156ZM591.79 52.5714V40.4954L585.958 15.8638H593.202L595.236 28.2944L597.271 15.8638H604.494L598.682 40.4954V52.5714H591.79Z" fill="#121212"/>
</g>
<defs>
<clipPath id="clip0_1262_76">
<rect width="869" height="69" fill="white"/>
</clipPath>
</defs>
</svg>
