<svg width="161" height="159" viewBox="0 0 161 159" fill="none" xmlns="http://www.w3.org/2000/svg">
<path d="M71.0845 148.352L72.2295 148.583L65.8426 158.983L64.4466 158.701L62.5361 146.631L63.7125 146.868L64.2103 150.069L69.3864 151.111L71.0845 148.352ZM65.6127 157.288L68.8423 152.03L64.372 151.13L65.3303 157.231C65.3458 157.397 65.3863 157.601 65.3799 157.714C65.4145 157.623 65.5183 157.432 65.6127 157.288Z" fill="#F1F2EB"/>
<path d="M50.3006 154.414L54.4749 144.888L49.6536 142.775L50.0774 141.808L55.9539 144.383L51.3557 154.876L50.3006 154.414Z" fill="#F1F2EB"/>
<path d="M38.16 134.258L43.7458 138.247L37.0879 147.57L31.5151 143.59L32.1288 142.731L36.7641 146.041L39.1632 142.682L34.9576 139.678L35.562 138.832L39.7676 141.835L42.1946 138.437L37.5462 135.117L38.16 134.258Z" fill="#F1F2EB"/>
<path d="M26.1711 130.835L24.6016 137.656L23.6882 136.649L24.4878 133.052C24.6915 132.133 24.8948 131.452 25.0915 130.907L19.2289 131.729L18.337 130.745L25.2126 129.825L26.7821 123.004L27.7062 124.023L26.8915 127.699C26.7463 128.349 26.5363 129.165 26.3503 129.722L32.1763 128.955L33.0789 129.951L26.1711 130.835Z" fill="#F1F2EB"/>
<path d="M23.0538 117.747L23.629 118.764L11.5862 120.743L10.8849 119.504L18.7595 110.158L19.3505 111.202L17.2562 113.674L19.8564 118.27L23.0538 117.747ZM12.7168 119.46L18.8058 118.46L16.5601 114.491L12.575 119.209C12.4594 119.33 12.3317 119.494 12.2421 119.563C12.3335 119.53 12.5461 119.483 12.7168 119.46Z" fill="#F1F2EB"/>
<path d="M15.7628 102.66L16.0803 103.767L5.06791 106.924L4.74602 105.802L12.1754 97.1138L3.0087 99.7418L2.69563 98.6498L13.708 95.4927L14.0211 96.5847L6.59608 105.288L15.7628 102.66Z" fill="#F1F2EB"/>
<path d="M12.2475 84.0923L12.3743 87.578L0.92582 87.9943L0.800234 84.5406C0.674648 81.0869 2.8934 78.7007 6.31514 78.5762C9.73688 78.4518 12.1225 80.6546 12.2475 84.0923ZM1.85728 84.5502L1.93926 86.8047L11.2771 86.4651L11.1939 84.1787C11.0922 81.3805 9.20429 79.656 6.35817 79.7595C3.49606 79.8635 1.75437 81.7201 1.85728 84.5502Z" fill="#F1F2EB"/>
<path d="M14.0435 64.2241L12.7321 70.9616L1.48715 68.773L2.79541 62.0512L3.83196 62.2529L2.74378 67.844L6.79575 68.6326L7.78306 63.5598L8.8039 63.7585L7.81659 68.8313L11.9157 69.6291L13.0069 64.0223L14.0435 64.2241Z" fill="#F1F2EB"/>
<path d="M16.7424 55.7003L16.2793 56.7551L5.78953 52.1503L7.50669 48.2386C8.43923 46.1143 10.1772 45.3396 12.0378 46.1563C13.5469 46.8188 14.2544 48.0729 14.029 49.5816L19.54 49.3273L19.0255 50.4994L13.7353 50.7282L12.3912 53.7902L16.7424 55.7003ZM7.20487 51.5135L11.4389 53.3722L12.7058 50.486C13.3425 49.0356 12.9244 47.8386 11.5912 47.2533C10.2287 46.6552 9.08924 47.2209 8.45897 48.6567L7.20487 51.5135Z" fill="#F1F2EB"/>
<path d="M26.4196 32.7913L25.6982 32.1104L28.883 28.736L29.6045 29.4169L26.4196 32.7913Z" fill="#F1F2EB"/>
<path d="M48.9316 19.8296L45.8128 21.3915L40.683 11.1482L43.7732 9.60065C46.8633 8.05311 49.9551 9.08151 51.4883 12.1431C53.0215 15.2046 52.0074 18.2892 48.9316 19.8296ZM44.2031 10.5664L42.1859 11.5766L46.37 19.9314L48.4158 18.9069C50.9194 17.6531 51.7049 15.2197 50.4297 12.6732C49.1472 10.1124 46.7353 9.29823 44.2031 10.5664Z" fill="#F1F2EB"/>
<path d="M67.7535 13.2185L61.0793 14.8215L58.4039 3.68224L65.0625 2.08298L65.3091 3.10978L59.7706 4.44001L60.7347 8.45386L65.7598 7.24694L66.0027 8.25818L60.9776 9.4651L61.9528 13.5256L67.5069 12.1917L67.7535 13.2185Z" fill="#F1F2EB"/>
<path d="M74.6192 3.71725C74.5781 1.79769 76.0866 0.501067 78.3901 0.451699C80.4536 0.407474 81.838 1.53007 82.0551 3.44586L80.8874 3.47088C80.7316 2.17792 79.8361 1.46095 78.3964 1.4918C76.7808 1.52643 75.7428 2.38086 75.7706 3.67657C75.7922 4.68434 76.3978 5.3115 77.604 5.58972L79.5819 6.02744C81.3827 6.42095 82.3324 7.42483 82.3657 8.97647C82.4082 10.96 80.8996 12.2566 78.5322 12.3074C76.3087 12.355 74.78 11.2195 74.5959 9.35104L75.7797 9.32567C75.8694 10.524 76.9419 11.2852 78.5096 11.2516C80.1892 11.2156 81.2434 10.3768 81.2153 9.06514C81.1934 8.04138 80.6031 7.38187 79.3652 7.12034L77.4194 6.68193C75.6185 6.28843 74.6528 5.28489 74.6192 3.71725Z" fill="#F1F2EB"/>
<path d="M93.0329 1.60941L91.321 12.9368L90.1819 12.7646L91.8939 1.43726L93.0329 1.60941Z" fill="#F1F2EB"/>
<path d="M106.756 5.99875C104.263 5.12902 102.049 6.42386 101.084 9.1884C100.104 11.9983 101.17 14.2852 103.602 15.1338C105.415 15.7663 107.488 15.5069 108.395 12.9085L108.59 12.3495L104.677 10.9843L105.015 10.0175L109.955 11.7411L107.909 17.6026L107.048 17.3021L107.543 15.5431C106.595 16.4153 104.951 16.7567 103.198 16.1453C100.132 15.0752 98.7864 12.1317 99.9513 8.79307C101.106 5.48468 104.032 3.89619 107.129 4.97676C109.41 5.7727 110.725 7.6886 110.462 9.80008L109.284 9.38893C109.347 7.75033 108.342 6.55222 106.756 5.99875Z" fill="#F1F2EB"/>
<path d="M115.071 21.33L114.107 20.7001L120.371 11.1086L121.349 11.7473L121.412 23.1785L126.627 15.1945L127.578 15.8157L121.314 25.4072L120.362 24.786L120.286 13.3461L115.071 21.33Z" fill="#F1F2EB"/>
<path d="M136.823 35.3114L137.618 34.7172L140.397 38.4327L139.603 39.0269L136.823 35.3114Z" fill="#F1F2EB"/>
<path d="M146.756 62.9532L144.685 56.4092L155.607 52.9525L157.673 59.4813L156.666 59.8L154.948 54.3694L151.012 55.615L152.572 60.5421L151.58 60.8559L150.021 55.9288L146.039 57.1888L147.763 62.6346L146.756 62.9532Z" fill="#F1F2EB"/>
<path d="M148.667 74.0452L148.395 70.5678L159.816 69.6758L160.085 73.1213C160.355 76.5668 158.237 79.0432 154.823 79.3098C151.41 79.5764 148.935 77.4747 148.667 74.0452ZM159.029 73.1557L158.853 70.9065L149.538 71.6341L149.716 73.9151C149.934 76.7066 151.892 78.3512 154.731 78.1294C157.586 77.9064 159.249 75.9791 159.029 73.1557Z" fill="#F1F2EB"/>
<path d="M152.733 87.7464L160.104 88.9731L159.915 90.1095L152.591 88.8906C150.603 88.5597 149.348 89.4701 149.02 91.4429C148.699 93.3685 149.623 94.6413 151.58 94.9671L158.903 96.1859L158.714 97.3222L151.344 96.0956C148.787 95.67 147.487 93.8317 147.915 91.2591C148.351 88.6391 150.16 87.3182 152.733 87.7464Z" fill="#F1F2EB"/>
<path d="M143.166 107.602C144.435 104.664 147.487 103.612 150.718 105.008C153.949 106.404 155.277 109.382 153.995 112.349C153.018 114.611 150.884 115.799 148.615 115.324L149.103 114.193C150.807 114.405 152.29 113.513 153.001 111.868C153.997 109.562 152.901 107.258 150.242 106.109C147.598 104.967 145.17 105.748 144.173 108.054C143.456 109.714 143.781 111.423 144.995 112.487L144.506 113.618C142.733 112.277 142.189 109.864 143.166 107.602Z" fill="#F1F2EB"/>
<path d="M137.747 118.24L138.448 117.306L145.088 127.546L144.233 128.685L132.515 125.216L133.235 124.256L136.339 125.184L139.507 120.96L137.747 118.24ZM143.459 127.024L140.102 121.847L137.366 125.495L143.286 127.255C143.443 127.312 143.645 127.363 143.744 127.418C143.677 127.347 143.549 127.171 143.459 127.024Z" fill="#F1F2EB"/>
<path d="M135.365 137.273L136.056 138.072L129.847 143.441L129.156 142.642L131.831 140.329L125.028 132.463L125.9 131.709L132.702 139.576L135.365 137.273Z" fill="#F1F2EB"/>
<path d="M110.858 141.898L116.863 138.572L122.414 148.593L116.424 151.912L115.912 150.988L120.895 148.228L118.894 144.617L114.374 147.121L113.87 146.211L118.39 143.707L116.367 140.054L111.37 142.822L110.858 141.898Z" fill="#F1F2EB"/>
<path d="M95.2135 151.139L95.3815 152.116L90.8085 152.902L90.6405 151.925L95.2135 151.139Z" fill="#F1F2EB"/>
</svg>
