<svg width="1109" height="911" viewBox="0 0 1109 911" fill="none" xmlns="http://www.w3.org/2000/svg">
<path d="M58.9717 268.015L57.4974 215.112H45.3345L43.8602 268.015H0L9.39862 3.68659H93.249L102.648 268.015H58.9717ZM46.4402 177.325H56.2074L52.5217 37.7875H50.3102L46.4402 177.325Z" fill="#091B22"/>
<path d="M210.359 3.68659H255.694V268.015H168.895L159.865 37.7875H157.469V268.015H112.135V3.68659H199.118L208.148 234.098H210.359V3.68659Z" fill="#091B22"/>
<path d="M350.041 41.4741H338.616V117.049H350.041V154.837H338.616V230.227H350.041V268.015H293.281V3.68659H350.041V41.4741Z" fill="#091B22"/>
<path d="M361.187 3.68659H410.392C427.899 3.68659 440.615 7.37318 448.17 14.9307C455.726 22.4882 459.412 35.0226 459.412 52.5339V219.352C459.412 236.679 455.726 249.029 448.17 256.586C440.615 264.144 427.899 268.015 410.392 268.015H361.187V3.68659ZM414.077 230.227V41.4741H406.522V230.227H414.077Z" fill="#091B22"/>
<path d="M523.632 3.68659H568.967V223.039C568.967 239.628 565.096 251.794 557.172 259.72C549.248 267.646 536.716 271.702 519.946 271.702C503.176 271.702 490.645 267.646 482.72 259.72C474.796 251.794 470.742 239.628 470.742 223.039V3.68659H516.076V230.227H523.632V3.68659Z" fill="#091B22"/>
<path d="M678.521 132.164H633.187V41.4741H625.631V230.227H633.187V139.722H678.521V223.039C678.521 255.481 662.12 271.702 629.501 271.702C596.698 271.702 580.296 255.481 580.296 223.039V48.663C580.296 16.221 596.698 0 629.501 0C662.12 0 678.521 16.221 678.521 48.663V132.164Z" fill="#091B22"/>
<path d="M746.98 268.015L745.506 215.112H733.343L731.869 268.015H688.008L697.407 3.68659H781.257L790.656 268.015H746.98ZM734.449 177.325H744.216L740.53 37.7875H738.319L734.449 177.325Z" fill="#091B22"/>
<path d="M792.403 3.68659H860.405V41.4741H849.163V268.015H803.829V41.4741H792.403V3.68659Z" fill="#091B22"/>
<path d="M917.253 0C934.024 0 946.555 3.87092 954.479 11.7971C962.404 19.7232 966.274 32.0733 966.274 48.663V223.039C966.274 239.628 962.404 251.794 954.479 259.72C946.555 267.646 934.024 271.702 917.253 271.702C900.483 271.702 887.952 267.646 880.028 259.72C872.103 251.794 868.049 239.628 868.049 223.039V48.663C868.049 32.0733 872.103 19.7232 880.028 11.7971C887.952 3.87092 900.483 0 917.253 0ZM920.939 230.227V41.4741H913.383V230.227H920.939Z" fill="#091B22"/>
<path d="M1075.83 47.9256V92.1647C1075.83 118.892 1066.25 133.086 1047.08 135.113V136.588C1066.25 139.353 1075.83 154.099 1075.83 180.458V268.015H1030.49V154.837H1022.94V268.015H977.604V3.68659H1032.34C1046.16 3.87092 1057.03 7.74183 1064.59 15.2993C1072.14 22.8568 1075.83 33.7323 1075.83 47.9256ZM1030.49 117.049V41.4741H1022.94V117.049H1030.49Z" fill="#091B22"/>
<path d="M58.9717 585.12L57.4974 532.218H45.3345L43.8602 585.12H0L9.39862 320.792H93.249L102.648 585.12H58.9717ZM46.4402 494.43H56.2074L52.5217 354.893H50.3102L46.4402 494.43Z" fill="#091B22"/>
<path d="M210.359 320.792H255.694V585.12H168.895L159.865 354.893H157.469V585.12H112.135V320.792H199.118L208.148 551.204H210.359V320.792Z" fill="#091B22"/>
<path d="M267.024 320.792H316.228C333.736 320.792 346.451 324.479 354.007 332.036C361.563 339.594 365.249 352.128 365.249 369.639V536.457C365.249 553.784 361.563 566.135 354.007 573.692C346.451 581.25 333.736 585.12 316.228 585.12H267.024V320.792ZM319.914 547.333V358.58H312.358V547.333H319.914Z" fill="#091B22"/>
<path d="M504.009 426.597H459.228V358.58H447.802V547.333H459.228V471.942H453.515V434.155H504.009V540.144C504.009 556.734 499.955 568.899 491.846 576.826C483.553 584.752 470.838 588.807 453.515 588.807C436.192 588.807 423.476 584.752 415.183 576.826C406.89 568.899 402.836 556.734 402.836 540.144V365.768C402.836 349.179 406.89 336.829 415.183 328.903C423.476 320.976 436.192 317.106 453.515 317.106C470.838 317.106 483.553 320.976 491.846 328.903C499.955 336.829 504.009 349.179 504.009 365.768V426.597Z" fill="#091B22"/>
<path d="M613.564 365.031V409.27C613.564 435.998 603.981 450.191 584.815 452.219V453.694C603.981 456.459 613.564 471.205 613.564 497.564V585.12H568.229V471.942H560.674V585.12H515.339V320.792H570.072C583.894 320.976 594.767 324.847 602.322 332.405C609.878 339.962 613.564 350.838 613.564 365.031ZM568.229 434.155V358.58H560.674V434.155H568.229Z" fill="#091B22"/>
<path d="M682.023 585.12L680.548 532.218H668.385L666.911 585.12H623.051L632.45 320.792H716.3L725.699 585.12H682.023ZM669.491 494.43H679.258L675.573 354.893H673.361L669.491 494.43Z" fill="#091B22"/>
<path d="M735.186 585.12V320.792H784.39C801.16 320.792 813.692 324.663 821.616 332.589C829.54 340.515 833.41 352.865 833.41 369.639V483.555C833.41 500.145 829.54 512.31 821.616 520.236C813.692 528.163 801.16 532.218 784.39 532.218H780.52V585.12H735.186ZM788.076 494.43V358.58H780.52V494.43H788.076Z" fill="#091B22"/>
<path d="M897.631 320.792H942.965V585.12H897.631V471.942H890.075V585.12H844.74V320.792H890.075V434.155H897.631V320.792Z" fill="#091B22"/>
<path d="M954.295 585.12V320.792H999.63V585.12H954.295Z" fill="#091B22"/>
<path d="M1109 449.27H1063.67V358.58H1056.11V547.333H1063.67V456.827H1109V540.144C1109 572.586 1092.6 588.807 1059.98 588.807C1027.18 588.807 1010.78 572.586 1010.78 540.144V365.768C1010.78 333.327 1027.18 317.106 1059.98 317.106C1092.6 317.106 1109 333.327 1109 365.768V449.27Z" fill="#091B22"/>
<path fill-rule="evenodd" clip-rule="evenodd" d="M679.222 640.154H735.379L735.389 640.154C749.46 640.342 760.731 644.289 768.621 652.181C776.525 660.087 780.277 671.376 780.277 685.809V730.048C780.277 743.549 777.862 754.101 772.85 761.573C768.474 768.097 762.199 772.152 754.145 773.806C762.218 775.773 768.489 780.102 772.859 786.783C777.859 794.43 780.277 805.017 780.277 818.341V907.313H732.112V794.135H727.387V907.313H679.222V640.154ZM682.052 642.985V904.482H724.556V791.304H734.942V904.482H777.446V818.341C777.446 805.306 775.072 795.341 770.49 788.333C765.945 781.383 759.137 777.203 749.911 775.872L748.698 775.697V771.722L749.964 771.588C759.189 770.613 765.973 766.744 770.499 759.996C775.07 753.182 777.446 743.274 777.446 730.048V685.809C777.446 671.854 773.827 661.392 766.619 654.183C759.4 646.962 748.927 643.168 735.36 642.985H682.052ZM724.556 677.941H734.942V756.348H724.556V677.941ZM727.387 680.773V753.516H732.112V680.773H727.387Z" fill="#091B22"/>
<path fill-rule="evenodd" clip-rule="evenodd" d="M611.316 640.154H670.906V680.773H659.481V753.516H670.906V794.135H659.481V866.695H670.906V907.313H611.316V640.154ZM614.146 642.985V904.482H668.076V869.526H656.65V791.304H668.076V756.348H656.65V677.941H668.076V642.985H614.146Z" fill="#091B22"/>
<path fill-rule="evenodd" clip-rule="evenodd" d="M456.426 640.154H546.186L554.651 856.154V640.154H602.816V907.313H513.241L504.592 686.787V907.313H456.426V640.154ZM459.257 642.985V904.482H501.761V674.255H506.933L515.963 904.482H599.986V642.985H557.482V873.397H552.494L543.464 642.985H459.257Z" fill="#091B22"/>
<path fill-rule="evenodd" clip-rule="evenodd" d="M396.017 639.299C378.871 639.299 366.583 643.134 358.663 650.703C350.76 658.257 346.754 670.158 346.754 686.546V860.921C346.754 877.304 350.757 889.023 358.663 896.579C366.591 904.156 378.887 908.169 396.017 908.169C413.143 908.169 425.437 904.158 433.365 896.586C441.094 889.027 445.096 877.3 445.096 860.921V756.348H397.433V791.304H403.145V869.526H388.889V677.941H403.145V745.959H445.096V686.546C445.096 670.162 441.092 658.254 433.365 650.698C425.445 643.132 413.159 639.299 396.017 639.299ZM356.708 648.656C365.374 640.374 378.518 636.467 396.017 636.467C413.517 636.467 426.66 640.374 435.327 648.656L435.332 648.662L435.338 648.668C443.825 656.964 447.927 669.754 447.927 686.546V748.79H400.315V680.773H391.72V866.695H400.315V794.135H394.602V753.516H447.927V860.921C447.927 877.718 443.822 890.322 435.338 898.615L435.332 898.621L435.327 898.626C426.668 906.902 413.533 911 396.017 911C378.501 911 365.366 906.902 356.708 898.626C348.028 890.33 343.923 877.718 343.923 860.921V686.546C343.923 669.755 348.025 656.955 356.708 648.656Z" fill="#091B22"/>
<path fill-rule="evenodd" clip-rule="evenodd" d="M287.443 640.154H335.608V907.313H287.443V640.154ZM290.274 642.985V904.482H332.777V642.985H290.274Z" fill="#091B22"/>
<path fill-rule="evenodd" clip-rule="evenodd" d="M192.289 650.86C184.725 658.605 180.719 670.713 180.719 687.283V731.522C180.719 740.923 182.525 749.18 186.098 756.327C189.712 763.555 194.019 769.101 198.999 773.193C204.101 777.384 211.054 782.329 219.877 788.028L219.883 788.032L219.889 788.036C228.787 793.906 233.609 801.112 233.609 809.309V869.526H223.223V805.011H180.719V860.184C180.719 876.764 184.729 888.862 192.283 896.418L192.289 896.423L192.294 896.429C199.845 904.157 211.932 908.169 228.508 908.169C245.085 908.169 257.171 904.157 264.722 896.429L264.727 896.423L264.733 896.418C272.279 888.87 276.113 876.781 276.113 860.184V805.807C276.113 796.787 274.311 788.712 270.918 781.74C267.304 774.694 262.996 769.149 258.017 765.058C252.904 760.857 245.946 755.728 237.139 750.038C228.136 744.223 223.223 737.582 223.223 730.416V677.941H233.609V734.899H276.113V687.283C276.113 670.697 272.283 658.597 264.727 650.859C257.173 643.308 245.08 639.299 228.508 639.299C211.936 639.299 199.843 643.308 192.289 650.86ZM190.281 648.863C198.577 640.566 211.544 636.467 228.508 636.467C245.472 636.467 258.44 640.566 266.735 648.863L266.74 648.869L266.746 648.875C275.035 657.358 278.944 670.326 278.944 687.283V737.73H230.778V680.773H226.053V730.416C226.053 736.153 229.986 742.047 238.674 747.66C247.559 753.399 254.606 758.592 259.814 762.87C265.151 767.256 269.687 773.135 273.443 780.461L273.45 780.474L273.456 780.487C277.062 787.889 278.944 796.4 278.944 805.807V860.184C278.944 877.132 275.039 890.109 266.74 898.414C258.442 906.903 245.468 911 228.508 911C211.548 911 198.574 906.903 190.276 898.414C181.984 890.117 177.888 877.148 177.888 860.184V802.179H226.053V866.695H230.778V809.309C230.778 802.393 226.756 795.96 218.336 790.403C209.47 784.676 202.42 779.667 197.202 775.38C191.863 770.993 187.324 765.11 183.566 757.593C179.767 749.993 177.888 741.291 177.888 731.522V687.283C177.888 670.309 181.989 657.351 190.27 648.875L190.276 648.869L190.281 648.863Z" fill="#091B22"/>
<path fill-rule="evenodd" clip-rule="evenodd" d="M109.982 640.154H169.573V680.773H158.147V753.516H169.573V794.135H158.147V866.695H169.573V907.313H109.982V640.154ZM112.813 642.985V904.482H166.743V869.526H155.317V791.304H166.743V756.348H155.317V677.941H166.743V642.985H112.813Z" fill="#091B22"/>
<path fill-rule="evenodd" clip-rule="evenodd" d="M0.427545 640.154H51.0474C68.6881 640.154 81.8733 643.857 89.8269 651.813C97.7784 659.766 101.483 672.767 101.483 690.417V857.235C101.483 874.708 97.7751 887.52 89.8269 895.47C81.8806 903.419 68.7051 907.313 51.0474 907.313H0.427545V640.154ZM3.25819 642.985V904.482H51.0474C68.4042 904.482 80.6602 900.635 87.8254 893.468C94.9887 886.303 98.6523 874.415 98.6523 857.235V690.417C98.6523 673.044 94.9854 660.976 87.8254 653.815C80.6675 646.655 68.4212 642.985 51.0474 642.985H3.25819ZM45.7621 677.941H56.1484V869.526H45.7621V677.941ZM48.5927 680.773V866.695H53.3178V680.773H48.5927Z" fill="#091B22"/>
</svg>
